<svg id="Calque_1" data-name="Calque 1" xmlns="http://www.w3.org/2000/svg" viewBox="0 0 1199 487.69"><defs><style>.cls-1{font-size:29px;}.cls-1,.cls-4,.cls-5{fill:#f15a24;}.cls-1,.cls-5{font-family:Arimo;}.cls-2{fill:#000;}.cls-3{fill:#fff;}.cls-5{font-size:42px;}.cls-6{letter-spacing:-0.04em;}</style></defs><title>triangledordupositionnement</title><text class="cls-1" transform="translate(474.45 117.72)">Attente du public: <tspan class="cls-2"><tspan x="-135.41" y="34.8">produit fonctionnelle, facile d’utilisation </tspan><tspan x="55.62" y="69.6">&amp; design</tspan></tspan></text><path class="cls-3" d="M538.53,515.69a14.17,14.17,0,0,1-12.08-21.37L648.7,286.83a14.17,14.17,0,0,1,24.55.22L791.81,496.67a14.17,14.17,0,0,1-12.32,21.15Z" transform="translate(-73 -71.31)"/><path class="cls-4" d="M660.91,279.35v1a13.51,13.51,0,0,1,11.9,6.94L732.1,392.11l59.28,104.81a13.67,13.67,0,0,1-11.89,20.4h-.13L659,516.25l-120.42-1.06a13.67,13.67,0,0,1-11.65-20.61L588,390.83l61.12-103.75a13.57,13.57,0,0,1,11.78-6.73v-1m0,0a14.54,14.54,0,0,0-12.64,7.23L587.14,390.32,526,494.07a14.68,14.68,0,0,0,12.52,22.12l120.41,1.06,120.41,1.07h.14a14.67,14.67,0,0,0,12.76-21.89L733,391.61,673.68,286.8a14.52,14.52,0,0,0-12.77-7.45Z" transform="translate(-73 -71.31)"/><text class="cls-5" transform="translate(292 35.45)"><tspan class="cls-6">T</tspan><tspan x="24.1" y="0">riangle d’or du positionnement</tspan></text><text class="cls-1" transform="translate(768.94 398.72)">Positionnement des concurents: <tspan class="cls-2"><tspan x="-12.11" y="34.8">Produit fonctionnelle et technique.</tspan></tspan></text><text class="cls-1" transform="translate(103.59 391.23)">Atout du produit: <tspan class="cls-2"><tspan x="-86.24" y="34.8">Design original, ergonomique, </tspan><tspan x="-101.53" y="69.6">exprérience utilisateur optimisée</tspan></tspan></text></svg>