<?xml version="1.0" encoding="utf-8"?>
<!-- Generator: Adobe Illustrator 24.0.1, SVG Export Plug-In . SVG Version: 6.00 Build 0)  -->
<svg version="1.1" id="Capa_1" xmlns="http://www.w3.org/2000/svg" xmlns:xlink="http://www.w3.org/1999/xlink" x="0px" y="0px"
	 viewBox="0 0 405.3 405.3" style="enable-background:new 0 0 405.3 405.3;" xml:space="preserve">
<style type="text/css">
	.st0{fill:#F5CA17;}
	.st1{fill:none;stroke:#FFFFFF;stroke-width:14;stroke-miterlimit:10;}
</style>
<g>
	<path class="st0" d="M122.5,87.8c4.8-1.2,7.8-6.1,6.6-10.9l-6-24.9c-1.2-4.8-6.1-7.8-10.9-6.6c-4.8,1.2-7.8,6.1-6.6,10.9l6,24.9
		C112.8,86,117.6,89,122.5,87.8z"/>
	<path class="st0" d="M196.2,99.4c2.2-0.5,4.2-1.9,5.6-4.1l13.4-21.9c2.6-4.2,1.2-9.8-3-12.4c-4.2-2.6-9.8-1.2-12.4,3l-13.4,21.9
		c-2.6,4.2-1.2,9.8,3,12.4C191.5,99.5,193.9,99.9,196.2,99.4z"/>
	<path class="st0" d="M57.4,194.5c-1.2-4.8-6.1-7.8-10.9-6.6l-24.9,6c-4.8,1.2-7.8,6.1-6.6,10.9c1.2,4.8,6.1,7.8,10.9,6.6l24.9-6
		C55.7,204.2,58.5,199.3,57.4,194.5z"/>
	<path class="st0" d="M55.5,130.7c2.2,1.3,4.6,1.6,6.8,1.1c2.2-0.5,4.2-1.9,5.6-4.1c2.6-4.2,1.2-9.8-3-12.4L43,101.9
		c-4.2-2.6-9.8-1.2-12.4,3c-2.6,4.2-1.2,9.8,3,12.4L55.5,130.7z"/>
	<path class="st0" d="M198.7,130.7c-16.4-21.1-44.3-31.9-71.9-25.2c-37.6,9.1-60.8,47.1-51.7,84.7c1.7,7.1,4.5,13.7,8.1,19.7
		c2.6,4.3,5.7,8.3,9.1,12c4.8-4,10.4-7.1,16.5-9.1c-4-3.5-7.4-7.6-10.2-12.2c-2.7-4.4-4.7-9.3-6-14.5c-6.8-27.9,10.5-56.2,38.4-62.9
		c19.6-4.8,39.5,2.4,51.8,16.8c3.2,3.8,5.9,8,8,12.6c4.8-3.6,10.1-6.6,15.7-8.9C204.5,138.9,201.8,134.6,198.7,130.7z"/>
</g>
<g>
	<g>
		<path class="st1" d="M365.8,270.1c0,24.5-20.8,44.4-46.6,44.4l-197-0.9c-29.2,0-53-22.6-53-50.4c0-15.6,7.5-29.5,19.2-38.8
			c5.1-4,10.9-7.1,17.3-9.1c5.2-1.6,10.7-2.5,16.5-2.5c10.5,0,20.7,2.9,29.5,8.5c2.4,1.5,5.7,1.6,8.3,0.2c2.6-1.4,4.1-4.1,3.9-7V214
			c-0.1-1.6-0.2-3.1-0.2-4.5c0-22.2,11.2-42,28.5-54.5c5-3.6,10.6-6.6,16.5-8.9c8.2-3.1,17.1-4.8,26.4-4.8
			c39.4,0,71.6,30.5,71.6,68.1c0,2.5-0.1,5.2-0.5,8.2c-0.2,2.2,0.5,4.5,2.2,6.1c1.7,1.6,4,2.4,6.4,2.2c1.7-0.1,3.1-0.2,4.3-0.2
			C344.9,225.7,365.8,245.6,365.8,270.1z"/>
	</g>
</g>
</svg>
