<?xml version="1.0" encoding="utf-8"?>
<!-- Generator: Adobe Illustrator 24.0.1, SVG Export Plug-In . SVG Version: 6.00 Build 0)  -->
<svg version="1.1" id="Capa_1" xmlns="http://www.w3.org/2000/svg" xmlns:xlink="http://www.w3.org/1999/xlink" x="0px" y="0px"
	 viewBox="0 0 81.3 81.3" style="enable-background:new 0 0 81.3 81.3;" xml:space="preserve">
<style type="text/css">
	.st0{fill:#5B6A67;}
</style>
<g>
	<path class="st0" d="M79.2,38.7c-1.2-0.5-2.7-0.1-3.5,1c-4.8,5.8-11.9,9.2-19.4,9.2c-13.8,0-25.1-11.3-25.1-25.1
		c0-7,2.8-13.4,7.9-18.2c1-0.9,1.3-2.4,0.7-3.6c-0.6-1.2-1.8-2-3.2-1.8C15.8,2.1,0,19.5,0,40.6C0,63,18.2,81.2,40.7,81.2
		c22.2,0,40-17.4,40.6-39.5C81.3,40.4,80.5,39.1,79.2,38.7z M40.7,75c-19,0-34.4-15.4-34.4-34.4c0-14.9,9.4-27.7,22.9-32.4
		c-2.7,4.7-4.2,10-4.2,15.6C25,41,39,55.1,56.3,55.1c6.3,0,12.4-1.9,17.5-5.3C69.8,64.4,56.6,75,40.7,75z"/>
</g>
</svg>
