<?xml version="1.0" encoding="utf-8"?>
<!-- Generator: Adobe Illustrator 24.0.1, SVG Export Plug-In . SVG Version: 6.00 Build 0)  -->
<svg version="1.1" id="Capa_1" xmlns="http://www.w3.org/2000/svg" xmlns:xlink="http://www.w3.org/1999/xlink" x="0px" y="0px"
	 viewBox="0 0 233.6 233.6" style="enable-background:new 0 0 233.6 233.6;" xml:space="preserve">
<style type="text/css">
	.st0{fill:#FFFFFF;}
	.st1{fill:#1E9BD5;}
</style>
<g>
	<path class="st0" d="M172.2,38.7c-1.2,0-2.4,0-3.6,0.1C158.9,15.7,135.4,0,109.4,0C74.1,0,45.4,28.2,45.4,62.8c0,0.1,0,0.2,0,0.4
		C21.7,65,2.9,84.5,2.9,108.2c0,24.9,20.6,45.1,46,45.1h123.3c32.2,0,58.4-25.7,58.4-57.3C230.7,64.4,204.5,38.7,172.2,38.7z
		 M172.2,138.3H48.9c-17.1,0-31-13.5-31-30.1c0-16.6,13.9-30.1,31-30.1c1.1,0,2.2,0.1,3.7,0.3c2.3,0.3,4.6-0.6,6.2-2.2
		c1.6-1.7,2.4-4,2-6.3c-0.3-2.4-0.5-4.7-0.5-7c0-26.4,22-47.8,49.1-47.8c21.5,0,40.9,14,47,34.1c1.1,3.6,4.7,5.8,8.4,5.2
		c2.4-0.4,4.9-0.6,7.4-0.6c23.9,0,43.4,19,43.4,42.3C215.7,119.3,196.2,138.3,172.2,138.3z"/>
	<path class="st1" d="M40.6,196.8l21.5-21.5c2.9-2.9,2.9-7.7,0-10.6c-2.9-2.9-7.7-2.9-10.6,0L30,186.1c-2.9,2.9-2.9,7.7,0,10.6
		c1.5,1.5,3.4,2.2,5.3,2.2C37.2,198.9,39.1,198.2,40.6,196.8z"/>
	<path class="st1" d="M86.4,196.8l21.5-21.5c2.9-2.9,2.9-7.7,0-10.6c-2.9-2.9-7.7-2.9-10.6,0l-21.5,21.5c-2.9,2.9-2.9,7.7,0,10.6
		c1.5,1.5,3.4,2.2,5.3,2.2C83.1,198.9,85,198.2,86.4,196.8z"/>
	<path class="st1" d="M132.3,196.8l21.5-21.5c2.9-2.9,2.9-7.7,0-10.6c-2.9-2.9-7.7-2.9-10.6,0l-21.5,21.5c-2.9,2.9-2.9,7.7,0,10.6
		c1.5,1.5,3.4,2.2,5.3,2.2C128.9,198.9,130.8,198.2,132.3,196.8z"/>
	<path class="st1" d="M189,164.7l-21.5,21.5c-2.9,2.9-2.9,7.7,0,10.6c1.5,1.5,3.4,2.2,5.3,2.2c1.9,0,3.8-0.7,5.3-2.2l21.5-21.5
		c2.9-2.9,2.9-7.7,0-10.6C196.7,161.7,191.9,161.7,189,164.7z"/>
	<path class="st1" d="M54.6,199.3l-21.5,21.5c-2.9,2.9-2.9,7.7,0,10.6c1.5,1.5,3.4,2.2,5.3,2.2c1.9,0,3.8-0.7,5.3-2.2l21.5-21.5
		c2.9-2.9,2.9-7.7,0-10.6C62.3,196.4,57.6,196.4,54.6,199.3z"/>
	<path class="st1" d="M100.6,199.3l-21.5,21.5c-2.9,2.9-2.9,7.7,0,10.6c1.5,1.5,3.4,2.2,5.3,2.2s3.8-0.7,5.3-2.2l21.5-21.5
		c2.9-2.9,2.9-7.7,0-10.6C108.3,196.4,103.5,196.4,100.6,199.3z"/>
	<path class="st1" d="M146.6,199.3l-21.5,21.5c-2.9,2.9-2.9,7.7,0,10.6c1.5,1.5,3.4,2.2,5.3,2.2s3.8-0.7,5.3-2.2l21.5-21.5
		c2.9-2.9,2.9-7.7,0-10.6C154.2,196.4,149.5,196.4,146.6,199.3z"/>
</g>
</svg>
