<?xml version="1.0" encoding="utf-8"?>
<!-- Generator: Adobe Illustrator 24.0.1, SVG Export Plug-In . SVG Version: 6.00 Build 0)  -->
<svg version="1.1" id="Capa_1" xmlns="http://www.w3.org/2000/svg" xmlns:xlink="http://www.w3.org/1999/xlink" x="0px" y="0px"
	 viewBox="0 0 227.7 227.7" style="enable-background:new 0 0 227.7 227.7;" xml:space="preserve">
<style type="text/css">
	.st0{fill:#1E9BD5;}
	.st1{fill:#FFFFFF;}
</style>
<g>
	<circle class="st0" cx="183.1" cy="187.7" r="10.5"/>
	<circle class="st0" cx="137.3" cy="187.7" r="10.5"/>
	<circle class="st0" cx="91.1" cy="187.7" r="10.5"/>
	<circle class="st0" cx="45.3" cy="187.7" r="10.5"/>
	<circle class="st0" cx="160.3" cy="216.5" r="10.5"/>
	<circle class="st0" cx="114.1" cy="216.5" r="10.5"/>
	<circle class="st0" cx="68.3" cy="216.5" r="10.5"/>
	<path class="st1" d="M169.3,39.5c-1.2,0-2.4,0-3.6,0.1c-9.8-23.1-33.3-38.8-59.2-38.8c-35.3,0-64.1,28.2-64.1,62.8
		c0,0.1,0,0.2,0,0.4C18.7,65.7,0,85.2,0,108.9C0,133.8,20.6,154,46,154h123.3c32.2,0,58.4-25.7,58.4-57.3S201.5,39.5,169.3,39.5z
		 M169.3,139H46c-17.1,0-31-13.5-31-30.1s13.9-30.1,31-30.1c1.1,0,2.2,0.1,3.7,0.3c2.3,0.3,4.6-0.6,6.2-2.2c1.6-1.7,2.4-4,2-6.3
		c-0.3-2.4-0.5-4.7-0.5-7c0-26.4,22-47.8,49.1-47.8c21.5,0,40.9,14,47,34.1c1.1,3.6,4.7,5.8,8.4,5.2c2.4-0.4,4.9-0.6,7.4-0.6
		c23.9,0,43.4,19,43.4,42.3C212.7,120.1,193.3,139,169.3,139z"/>
</g>
</svg>
