<?xml version="1.0" encoding="utf-8"?>
<!-- Generator: Adobe Illustrator 24.0.1, SVG Export Plug-In . SVG Version: 6.00 Build 0)  -->
<svg version="1.1" id="Capa_1" xmlns="http://www.w3.org/2000/svg" xmlns:xlink="http://www.w3.org/1999/xlink" x="0px" y="0px"
	 viewBox="0 0 219.8 219.8" style="enable-background:new 0 0 219.8 219.8;" xml:space="preserve">
<style type="text/css">
	.st0{fill:#F5CA17;}
</style>
<g>
	<path class="st0" d="M109.9,183.5c-4.1,0-7.5,3.4-7.5,7.5v21.3c0,4.1,3.4,7.5,7.5,7.5c4.1,0,7.5-3.4,7.5-7.5V191
		C117.4,186.8,114,183.5,109.9,183.5z"/>
	<path class="st0" d="M109.9,36.3c4.1,0,7.5-3.4,7.5-7.5V7.5c0-4.1-3.4-7.5-7.5-7.5c-4.1,0-7.5,3.4-7.5,7.5v21.3
		C102.4,33,105.7,36.3,109.9,36.3z"/>
	<path class="st0" d="M47.3,161.9L32.2,177c-2.9,2.9-2.9,7.7,0,10.6c1.5,1.5,3.4,2.2,5.3,2.2c1.9,0,3.8-0.7,5.3-2.2l15.1-15.1
		c2.9-2.9,2.9-7.7,0-10.6C54.9,159,50.2,159,47.3,161.9z"/>
	<path class="st0" d="M167.2,60.1c1.9,0,3.8-0.7,5.3-2.2l15.1-15.1c2.9-2.9,2.9-7.7,0-10.6c-2.9-2.9-7.7-2.9-10.6,0l-15.1,15.1
		c-2.9,2.9-2.9,7.7,0,10.6C163.4,59.3,165.3,60.1,167.2,60.1z"/>
	<path class="st0" d="M36.3,109.9c0-4.1-3.4-7.5-7.5-7.5H7.5c-4.1,0-7.5,3.4-7.5,7.5s3.4,7.5,7.5,7.5h21.3
		C33,117.4,36.3,114,36.3,109.9z"/>
	<path class="st0" d="M212.3,102.4H191c-4.1,0-7.5,3.4-7.5,7.5s3.4,7.5,7.5,7.5h21.3c4.1,0,7.5-3.4,7.5-7.5
		C219.8,105.8,216.4,102.4,212.3,102.4z"/>
	<path class="st0" d="M47.3,57.9c1.5,1.5,3.4,2.2,5.3,2.2c1.9,0,3.8-0.7,5.3-2.2c2.9-2.9,2.9-7.7,0-10.6L42.8,32.2
		c-2.9-2.9-7.7-2.9-10.6,0c-2.9,2.9-2.9,7.7,0,10.6L47.3,57.9z"/>
	<path class="st0" d="M172.5,161.9c-2.9-2.9-7.7-2.9-10.6,0c-2.9,2.9-2.9,7.7,0,10.6l15.1,15.1c1.5,1.5,3.4,2.2,5.3,2.2
		c1.9,0,3.8-0.7,5.3-2.2c2.9-2.9,2.9-7.7,0-10.6L172.5,161.9z"/>
	<path class="st0" d="M109.9,51.5c-32.2,0-58.4,26.2-58.4,58.4c0,32.2,26.2,58.4,58.4,58.4c32.2,0,58.4-26.2,58.4-58.4
		C168.3,77.7,142.1,51.5,109.9,51.5z M109.9,153.3c-23.9,0-43.4-19.5-43.4-43.4c0-23.9,19.5-43.4,43.4-43.4
		c23.9,0,43.4,19.5,43.4,43.4C153.3,133.8,133.8,153.3,109.9,153.3z"/>
</g>
</svg>
