<?xml version="1.0" encoding="utf-8"?>
<!-- Generator: Adobe Illustrator 24.0.1, SVG Export Plug-In . SVG Version: 6.00 Build 0)  -->
<svg version="1.1" id="Capa_1" xmlns="http://www.w3.org/2000/svg" xmlns:xlink="http://www.w3.org/1999/xlink" x="0px" y="0px"
	 viewBox="0 0 365.2 365.2" style="enable-background:new 0 0 365.2 365.2;" xml:space="preserve">
<style type="text/css">
	.st0{fill:#F5CA17;}
	.st1{fill:#87969D;}
</style>
<g>
	<path class="st0" d="M289.5,93.3c-4.1,0-7.5,3.4-7.5,7.5s3.4,7.5,7.5,7.5c27.5,0,49.8,22.3,49.8,49.8S316.9,208,289.5,208H202
		c-4.1,0-7.5,3.4-7.5,7.5s3.4,7.5,7.5,7.5h13l-17.2,24.2c-1.6,2.3-1.8,5.3-0.5,7.8c1.3,2.5,3.9,4.1,6.7,4.1h20.2l-69.4,63.7
		l25.4-47.8c1.2-2.3,1.2-5.1-0.2-7.4c-1.4-2.3-3.8-3.6-6.4-3.6h-32.2l45.5-61.9c2.5-3.3,1.7-8-1.6-10.5c-3.3-2.5-8-1.7-10.5,1.6
		l-54.2,73.8c-1.7,2.3-1.9,5.3-0.6,7.8s3.9,4.1,6.7,4.1H161l-40,75.3c-1.7,3.2-0.9,7.2,2,9.5c1.4,1,3,1.6,4.6,1.6
		c1.8,0,3.6-0.7,5.1-2L248.5,257c2.3-2.1,3-5.4,1.9-8.2c-1.1-2.9-3.9-4.8-7-4.8h-25l14.9-21h56.1c35.7,0,64.8-29.1,64.8-64.8
		S325.2,93.3,289.5,93.3z"/>
	<path class="st1" d="M140.1,214.5c0-4.1-3.4-7.5-7.5-7.5H82.5C51.3,207,26,181.6,26,150.5S51.3,94,82.5,94c11.2,0,22,3.3,31.3,9.5
		c2.4,1.6,5.5,1.7,7.9,0.2c2.5-1.4,3.9-4.2,3.7-7l0-0.5c-0.1-1.8-0.3-3.4-0.3-5c0-42,34.1-76.1,76.1-76.1
		c34.8,0,65.2,23.5,73.7,57.2c1,4,5.1,6.4,9.1,5.4c4-1,6.4-5.1,5.4-9.1C279.2,28.2,242.9,0,201.2,0c-48.1,0-87.5,37.4-90.9,84.6
		c-8.8-3.7-18.2-5.7-27.9-5.7C43,79,11,111,11,150.5S43,222,82.5,222h50.2C136.8,222,140.1,218.6,140.1,214.5z"/>
</g>
</svg>
