<svg id="_x33_0" enable-background="new 0 0 64 64" height="512" viewBox="0 0 64 64" width="512" xmlns="http://www.w3.org/2000/svg"><g><g><path d="m54 51.6v10.4h-8v-7l4 1 1-5z" fill="#b4dd7f"/><path d="m18 55v7h-8v-10.4l3-.6 1 5z" fill="#b4dd7f"/><path d="m23.03 39.65c.33 3.56 3.32 6.35 6.97 6.35h4c3.65 0 6.64-2.79 6.97-6.35v-.01c.29.14.59.25.91.33l16.12 4.03-4 3 2 5-2-.4-3-.6-1 5-4-1v7h-28v-7l-4 1-1-5-3 .6-2 .4 2-5-4-3 16.12-4.03c.32-.08.62-.19.91-.33z" fill="#cf9e76"/><path d="m51 11.66c0 .22-.04.45-.11.67l-2.71 8.13c-.7-.89-1.79-1.46-3.01-1.46h-.38l.21-3c0-3-5-5-5-5l-2 8-9-6-1 6-7-7s-2 1-2 4l.21 3h-.38c-1.22 0-2.31.57-3.01 1.46l-2.38-7.14c-.29-.87-.44-1.79-.44-2.72 0-2.38.96-4.52 2.52-6.08s3.7-2.52 6.08-2.52h25.72c.93 0 1.68.75 1.68 1.68 0 .21-.04.42-.12.62l-1.88 4.7 2.39.6c.95.23 1.61 1.08 1.61 2.06z" fill="#cf9e76"/><path d="m38 40v-4.45c.01 0 .02-.01.03-.01v.01c.19 1.79 1.32 3.34 2.94 4.09v.01c-.33 3.56-3.32 6.35-6.97 6.35h-4c-3.65 0-6.64-2.79-6.97-6.35v-.01c1.62-.75 2.75-2.3 2.94-4.1v-.01c.91.31 1.87.47 2.86.47h1.17v2c0 1.1.9 2 2 2 .55 0 1.05-.22 1.41-.59.37-.36.59-.86.59-1.41v2c0 .55.22 1.05.59 1.41.36.37.86.59 1.41.59 1.1 0 2-.9 2-2z" fill="#b4dd7f"/><path d="m38 30c0 1.1-2.69 2-6 2-.7 0-1.37-.04-2-.12-2.33-.27-4-1.01-4-1.88 0-1.1 2.69-2 6-2s6 .9 6 2z" fill="#cf9e76"/><path d="m38 30v5.55 4.45c0 1.1-.9 2-2 2-.55 0-1.05-.22-1.41-.59-.37-.36-.59-.86-.59-1.41v-2c0 .55-.22 1.05-.59 1.41-.36.37-.86.59-1.41.59-1.1 0-2-.9-2-2v-2-4.11-.01c.63.08 1.3.12 2 .12 3.31 0 6-.9 6-2z" fill="#fcd770"/><g fill="#b4dd7f"><path d="m48.18 20.46c.51.66.82 1.48.82 2.37 0 1.35-.71 2.59-1.86 3.29l-3 1.79c.01-.1.02-.19.03-.29l.62-8.62h.38c1.22 0 2.31.57 3.01 1.46z"/><path d="m29 21c0-1.1-1.34-2-3-2s-3 .9-3 2 1.34 2 3 2 3-.9 3-2zm-8-9 7 7 1-6 9 6c-1.66 0-3 .9-3 2s1.34 2 3 2 3-.9 3-2-1.34-2-3-2l2-8s5 2 5 5l-.21 3-.62 8.62c-.01.1-.02.19-.03.29-.15 1.46-.65 2.85-1.46 4.07-1.12 1.69-2.77 2.93-4.65 3.56-.01 0-.02.01-.03.01v-5.55c0-1.1-2.69-2-6-2s-6 .9-6 2c0 .87 1.67 1.61 4 1.88v.01 4.11h-1.17c-.99 0-1.95-.16-2.86-.47-1.88-.62-3.52-1.86-4.65-3.55-.81-1.22-1.31-2.61-1.46-4.07-.01-.1-.02-.19-.03-.29l-.62-8.62-.21-3c0-3 2-4 2-4z"/><path d="m19.83 27.62c.01.1.02.19.03.29l-3-1.79c-1.15-.7-1.86-1.94-1.86-3.29 0-.89.31-1.71.82-2.37.7-.89 1.79-1.46 3.01-1.46h.38z"/></g><ellipse cx="38" cy="21" fill="#dfb28b" rx="3" ry="2"/><ellipse cx="26" cy="21" fill="#dfb28b" rx="3" ry="2"/></g><g><path d="m31 24h2v2h-2z"/><path d="m55.213 47.34 5.067-3.801-18.157-4.539c-1.428-.357-2.54-1.457-2.949-2.838 1.752-.766 3.271-2.028 4.336-3.624.803-1.206 1.317-2.577 1.542-4.003l2.603-1.561c1.447-.869 2.345-2.455 2.345-4.143 0-.921-.272-1.773-.721-2.506l2.562-7.685c.105-.32.159-.65.159-.984 0-1.436-.973-2.681-2.364-3.027l-1.282-.321 1.455-3.638c.127-.317.191-.652.191-.993 0-1.476-1.201-2.677-2.677-2.677h-25.72c-5.294 0-9.603 4.309-9.603 9.604 0 1.033.166 2.055.493 3.037l2.228 6.685c-.449.732-.721 1.585-.721 2.505 0 1.688.898 3.274 2.346 4.143l2.603 1.561c.225 1.426.739 2.797 1.542 4.003 1.085 1.628 2.603 2.859 4.339 3.615-.406 1.385-1.52 2.489-2.953 2.847l-18.157 4.539 5.067 3.801-2.401 6.003 2.614-.523v10.18h46v-10.18l2.614.523zm-20.213-12.34h-2v3c0 .552-.448 1-1 1s-1-.448-1-1v-5.029c.332.018.666.029 1 .029 1.831 0 3.666-.259 5-.803v7.803c0 .552-.448 1-1 1s-1-.448-1-1zm-7.909-5c.47-.37 2.146-1 4.909-1s4.439.63 4.909 1c-.47.37-2.146 1-4.909 1s-4.439-.63-4.909-1zm19.534-4.741-1.342.805.428-6.009c1.302.254 2.289 1.4 2.289 2.776 0 .988-.526 1.919-1.375 2.428zm-32.625-14.655c0-4.193 3.411-7.604 7.604-7.604h25.72c.372 0 .676.304.676.677 0 .086-.017.171-.049.252l-2.305 5.764 3.505.877c.5.124.849.571.849 1.087 0 .12-.02.24-.057.354l-2.242 6.726c-.553-.343-1.178-.57-1.849-.666l.148-2.071c0-3.574-5.053-5.698-5.629-5.929l-1.063-.425-1.933 7.735-9.107-6.071-.935 5.608-6.136-6.136-.645.322c-.104.052-2.553 1.317-2.55 4.966l.143 1.998c-.67.096-1.295.323-1.847.666l-1.908-5.727c-.259-.777-.39-1.585-.39-2.403zm24 9.396c1.221 0 2 .592 2 1s-.779 1-2 1-2-.592-2-1 .779-1 2-1zm-10 1c0 .408-.779 1-2 1s-2-.592-2-1 .779-1 2-1 2 .592 2 1zm-12 1.831c0-1.375.986-2.522 2.287-2.776l.429 6.009-1.342-.805c-.848-.509-1.374-1.44-1.374-2.428zm6.154 8.598c-.77-1.154-1.228-2.495-1.327-3.878l-.827-11.551c0-1.382.506-2.215.92-2.666l4.694 4.694c-2.052.144-3.614 1.389-3.614 2.972 0 1.683 1.757 3 4 3s4-1.317 4-3c0-.768-.379-1.452-.99-1.977l.722-4.334 5.864 3.91c-.969.543-1.596 1.404-1.596 2.401 0 1.683 1.757 3 4 3s4-1.317 4-3c0-1.354-1.146-2.458-2.759-2.843l1.434-5.731c1.4.75 3.326 2.096 3.328 3.503l-.83 11.622c-.1 1.383-.558 2.724-1.327 3.878-.722 1.083-1.709 1.969-2.846 2.589v-4.018c0-2.072-3.516-3-7-3s-7 .928-7 3c0 1.461 1.749 2.35 4 2.75v2.25h-.173c-2.687 0-5.182-1.335-6.673-3.571zm6.673 5.571h.173v1c0 1.654 1.346 3 3 3 .395 0 .77-.081 1.116-.22.345 1.275 1.501 2.22 2.884 2.22 1.654 0 3-1.346 3-3v-.496c.268.245.551.473.859.669-.548 2.786-2.952 4.827-5.859 4.827h-4c-2.907 0-5.31-2.041-5.859-4.827 1.237-.783 2.159-1.996 2.587-3.41.684.146 1.384.237 2.099.237zm-20.547 7.461 13.969-3.494c.879 3.512 4.014 6.033 7.751 6.033h4c3.737 0 6.872-2.521 7.75-6.033l13.969 3.494-2.933 2.199 1.599 3.997-4.17-.834-.991 4.952-2.192-.548c.139-1.32.731-2.578 1.674-3.521l-1.414-1.414c-1.456 1.458-2.292 3.476-2.292 5.536v6.172h-26v-6.172c0-2.061-.836-4.078-2.293-5.535l-1.414 1.414c.943.943 1.535 2.201 1.674 3.521l-2.193.548-.99-4.952-4.17.834 1.599-3.997zm2.72 7.959 1.216-.243 1.01 5.048 3.774-.945v4.72h-6zm42 8.58h-6v-4.72l3.775.944 1.009-5.048 1.216.244z"/></g></g></svg>