<svg height="512" viewBox="0 0 512 512" width="512" xmlns="http://www.w3.org/2000/svg"><g id="Flat"><path d="m46.09177 371.04588a28.47859 28.47859 0 0 0 20.55968 1.91082l157.34855-44.9567-32-24-126.13875 6.63888a37.99765 37.99765 0 0 0 -34.05061 25.92921v.00005a28.47859 28.47859 0 0 0 14.28113 34.47774z" fill="#2676b3"/><path d="m383.46 336.1-23.97 4.36-100.32008 18.24a114.46728 114.46728 0 0 1 -91.84985-23.11 114.56419 114.56419 0 0 0 -71.36007-24.95h-30.10014l70.28028-7.24011h.03979l29.77007-3.06989a255.8458 255.8458 0 0 1 83.26 5.09z" fill="#529fe1"/><path d="m488.03714 360-238.82586-54.58153a256.00008 256.00008 0 0 0 -83.26269-5.08759l-29.76759 3.06576 8.61873-28.7291a174.52583 174.52583 0 0 1 175.46678-124.17866l1.53743.07321a174.52573 174.52573 0 0 1 58.14933 12.94808l.00014.00006a174.52581 174.52581 0 0 1 108.07514 161.33756z" fill="#529fe1"/><path d="m383.46 336.1-23.97 4.36-118.32007-27.04c-27.29-6.24-77.13989-12.88989-104.99-10.02l29.77007-3.07a255.8458 255.8458 0 0 1 83.26 5.09z" fill="#4386c5"/><path d="m335.76 151.80005a161.592 161.592 0 0 0 -148.6101 115.03995l-9.77 32.57995q-5.71472.31512-11.42993.91l-29.77 3.06994 8.62012-28.73a174.52292 174.52292 0 0 1 175.46991-124.17989l1.53.07007q7.01995.32993 13.96 1.23998z" fill="#92bde1"/><path d="m435.8999 270.07007-3.6699 77.16993-95.42993-21.8 24.10984-77.15a156.69384 156.69384 0 0 0 .69019-91.16 171.658 171.658 0 0 1 18.3499 6.38c1.81006.75 3.61011 1.52 5.38013 2.33h.01a120.987 120.987 0 0 1 50.55977 104.23007z" fill="#4386c5"/><path d="m435.8999 270.07007a120.987 120.987 0 0 0 -50.55981-104.23007 174.52664 174.52664 0 0 1 102.68991 159.01l.01 35.15-55.81-12.76z" fill="#2676b3"/></g></svg>