<?xml version="1.0" encoding="iso-8859-1"?>
<!-- Generator: Adobe Illustrator 19.0.0, SVG Export Plug-In . SVG Version: 6.00 Build 0)  -->
<svg version="1.1" id="Capa_1" xmlns="http://www.w3.org/2000/svg" xmlns:xlink="http://www.w3.org/1999/xlink" x="0px" y="0px"
	 viewBox="0 0 512 512" style="enable-background:new 0 0 512 512;" xml:space="preserve">
<g>
	<polygon style="fill:#BDC3C7;" points="485.517,123.674 485.517,123.586 467.95,106.019 467.862,106.019 441.379,79.448 361.931,0 
		326.621,0 319.823,10.152 317.793,8.828 194.207,8.828 192.177,10.152 185.379,0 150.069,0 26.483,123.586 0,150.069 
		79.448,229.517 105.931,203.034 105.931,476.69 105.931,512 406.069,512 406.069,476.69 406.069,203.034 432.552,229.517 
		512,150.069 	"/>
	<g>
		<rect x="105.931" y="476.69" style="fill:#FF5364;" width="300.138" height="35.31"/>
		
			<rect x="34.24" y="120.366" transform="matrix(-0.7071 0.7071 -0.7071 -0.7071 215.2568 263.9268)" style="fill:#FF5364;" width="37.456" height="112.358"/>
		
			<rect x="402.879" y="157.861" transform="matrix(-0.7071 0.7071 -0.7071 -0.7071 908.4861 -23.1642)" style="fill:#FF5364;" width="112.323" height="37.42"/>
		<polygon style="fill:#FF5364;" points="256,105.931 150.069,70.621 150.069,0 185.379,0 192.177,10.152 		"/>
		<polygon style="fill:#FF5364;" points="361.931,0 361.931,79.448 256,105.931 319.823,10.152 326.621,0 		"/>
	</g>
	<g>
		<polygon style="fill:#95A5A5;" points="319.823,10.152 256,105.931 192.177,10.152 194.207,8.828 317.793,8.828 		"/>
		<polygon style="fill:#95A5A5;" points="485.517,123.586 485.517,123.674 406.069,203.034 406.069,476.69 256,476.69 256,105.931 
			361.931,79.448 361.931,0 441.379,79.448 467.862,106.019 467.95,106.019 		"/>
	</g>
	<path style="fill:#2C3E50;" d="M264.828,52.966h-17.655c-4.875,0-8.828-3.952-8.828-8.828s3.952-8.828,8.828-8.828h17.655
		c4.875,0,8.828,3.952,8.828,8.828S269.703,52.966,264.828,52.966z"/>
	<g>
		<path style="fill:#ECF0F1;" d="M194.207,203.034c-2.342,0.003-4.588-0.928-6.241-2.586l-8.828-8.828
			c-3.394-3.456-3.369-9.001,0.056-12.426c3.425-3.425,8.97-3.45,12.426-0.056l8.828,8.828c2.524,2.525,3.279,6.321,1.913,9.619
			C200.995,200.883,197.777,203.034,194.207,203.034z"/>
		<path style="fill:#ECF0F1;" d="M211.862,238.345c-4.875,0-8.828-3.952-8.828-8.828v-8.828c0-4.875,3.952-8.828,8.828-8.828
			c4.875,0,8.828,3.952,8.828,8.828v8.828C220.69,234.393,216.737,238.345,211.862,238.345z"/>
		<path style="fill:#ECF0F1;" d="M194.207,353.103c-2.342,0.003-4.588-0.928-6.241-2.586l-8.828-8.828
			c-3.394-3.456-3.369-9.001,0.056-12.426c3.425-3.425,8.97-3.45,12.426-0.056l8.828,8.828c2.524,2.525,3.279,6.321,1.913,9.619
			C200.995,350.952,197.777,353.103,194.207,353.103z"/>
		<path style="fill:#ECF0F1;" d="M211.862,388.414c-4.875,0-8.828-3.952-8.828-8.828v-8.828c0-4.875,3.952-8.828,8.828-8.828
			c4.875,0,8.828,3.952,8.828,8.828v8.828C220.69,384.462,216.737,388.414,211.862,388.414z"/>
		<path style="fill:#ECF0F1;" d="M150.069,282.483c-2.342,0.003-4.588-0.928-6.241-2.586L135,271.069
			c-3.394-3.456-3.369-9.001,0.056-12.426c3.425-3.425,8.97-3.45,12.426-0.056l8.828,8.828c2.524,2.525,3.279,6.321,1.913,9.619
			C156.857,280.331,153.639,282.482,150.069,282.483z"/>
		<path style="fill:#ECF0F1;" d="M185.379,282.483c-3.57-0.001-6.788-2.152-8.154-5.45c-1.366-3.298-0.611-7.094,1.913-9.619
			l8.828-8.828c3.456-3.394,9.001-3.369,12.426,0.056c3.425,3.425,3.45,8.97,0.056,12.426l-8.828,8.828
			C189.967,281.555,187.721,282.485,185.379,282.483z"/>
		<path style="fill:#ECF0F1;" d="M167.724,317.793c-4.875,0-8.828-3.952-8.828-8.828v-8.828c0-4.875,3.952-8.828,8.828-8.828
			s8.828,3.952,8.828,8.828v8.828C176.552,313.841,172.599,317.793,167.724,317.793z"/>
		<path style="fill:#ECF0F1;" d="M150.069,423.724c-2.342,0.003-4.588-0.928-6.241-2.586L135,412.31
			c-3.394-3.456-3.369-9.001,0.056-12.426c3.425-3.425,8.97-3.45,12.426-0.056l8.828,8.828c2.524,2.525,3.279,6.321,1.913,9.619
			C156.857,421.573,153.639,423.723,150.069,423.724z"/>
		<path style="fill:#ECF0F1;" d="M185.379,423.724c-3.57-0.001-6.788-2.152-8.154-5.45c-1.366-3.298-0.611-7.094,1.913-9.619
			l8.828-8.828c3.456-3.394,9.001-3.369,12.426,0.056c3.425,3.425,3.45,8.97,0.056,12.426l-8.828,8.828
			C189.967,422.796,187.721,423.727,185.379,423.724z"/>
		<path style="fill:#ECF0F1;" d="M167.724,459.034c-4.875,0-8.828-3.952-8.828-8.828v-8.828c0-4.875,3.952-8.828,8.828-8.828
			s8.828,3.952,8.828,8.828v8.828C176.552,455.082,172.599,459.034,167.724,459.034z"/>
		<path style="fill:#ECF0F1;" d="M114.759,123.586c-2.342,0.003-4.588-0.928-6.241-2.586l-8.828-8.828
			c-3.394-3.456-3.369-9.001,0.056-12.426s8.97-3.45,12.426-0.056l8.828,8.828c2.524,2.525,3.279,6.321,1.913,9.619
			S118.328,123.585,114.759,123.586z"/>
		<path style="fill:#ECF0F1;" d="M150.069,123.586c-3.57-0.001-6.788-2.152-8.154-5.45s-0.611-7.094,1.913-9.619l8.828-8.828
			c3.456-3.394,9.001-3.369,12.426,0.056c3.425,3.425,3.45,8.97,0.056,12.426L156.31,121
			C154.657,122.658,152.411,123.589,150.069,123.586z"/>
		<path style="fill:#ECF0F1;" d="M132.414,158.897c-4.875,0-8.828-3.952-8.828-8.828v-8.828c0-4.875,3.952-8.828,8.828-8.828
			s8.828,3.952,8.828,8.828v8.828C141.241,154.944,137.289,158.897,132.414,158.897z"/>
		<path style="fill:#ECF0F1;" d="M317.793,203.034c-3.57-0.001-6.788-2.152-8.154-5.45c-1.366-3.298-0.611-7.094,1.913-9.619
			l8.828-8.828c2.223-2.264,5.49-3.16,8.556-2.348c3.067,0.812,5.462,3.207,6.274,6.274c0.812,3.067-0.085,6.333-2.348,8.556
			l-8.828,8.828C322.381,202.106,320.135,203.037,317.793,203.034z"/>
		<path style="fill:#ECF0F1;" d="M300.138,238.345c-4.875,0-8.828-3.952-8.828-8.828v-8.828c0-4.875,3.952-8.828,8.828-8.828
			s8.828,3.952,8.828,8.828v8.828C308.966,234.393,305.013,238.345,300.138,238.345z"/>
		<path style="fill:#ECF0F1;" d="M317.793,353.103c-3.57-0.001-6.788-2.152-8.154-5.45c-1.366-3.298-0.611-7.094,1.913-9.619
			l8.828-8.828c3.456-3.394,9.001-3.369,12.426,0.056c3.425,3.425,3.45,8.97,0.056,12.426l-8.828,8.828
			C322.381,352.175,320.135,353.106,317.793,353.103z"/>
		<path style="fill:#ECF0F1;" d="M300.138,388.414c-4.875,0-8.828-3.952-8.828-8.828v-8.828c0-4.875,3.952-8.828,8.828-8.828
			s8.828,3.952,8.828,8.828v8.828C308.966,384.462,305.013,388.414,300.138,388.414z"/>
		<path style="fill:#ECF0F1;" d="M361.931,282.483c-3.57-0.001-6.788-2.152-8.154-5.45c-1.366-3.298-0.611-7.094,1.913-9.619
			l8.828-8.828c2.223-2.264,5.49-3.16,8.556-2.348c3.067,0.812,5.462,3.207,6.274,6.274c0.812,3.067-0.085,6.333-2.348,8.556
			l-8.828,8.828C366.519,281.555,364.273,282.485,361.931,282.483z"/>
		<path style="fill:#ECF0F1;" d="M326.621,282.483c-2.342,0.003-4.588-0.928-6.241-2.586l-8.828-8.828
			c-3.394-3.456-3.369-9.001,0.056-12.426c3.425-3.425,8.97-3.45,12.426-0.056l8.828,8.828c2.524,2.525,3.279,6.321,1.913,9.619
			C333.409,280.331,330.191,282.482,326.621,282.483z"/>
		<path style="fill:#ECF0F1;" d="M185.379,158.897c-3.57-0.001-6.788-2.152-8.154-5.45c-1.366-3.298-0.611-7.094,1.913-9.619
			l8.828-8.828c3.456-3.394,9.001-3.369,12.426,0.056c3.425,3.425,3.45,8.97,0.056,12.426l-8.828,8.828
			C189.967,157.968,187.721,158.899,185.379,158.897z"/>
		<path style="fill:#ECF0F1;" d="M326.621,158.897c-2.342,0.003-4.588-0.928-6.241-2.586l-8.828-8.828
			c-3.394-3.456-3.369-9.001,0.056-12.426s8.97-3.45,12.426-0.056l8.828,8.828c2.524,2.525,3.279,6.321,1.913,9.619
			S330.191,158.896,326.621,158.897z"/>
		<path style="fill:#ECF0F1;" d="M344.276,317.793c-4.875,0-8.828-3.952-8.828-8.828v-8.828c0-4.875,3.952-8.828,8.828-8.828
			s8.828,3.952,8.828,8.828v8.828C353.103,313.841,349.151,317.793,344.276,317.793z"/>
		<path style="fill:#ECF0F1;" d="M361.931,423.724c-3.57-0.001-6.788-2.152-8.154-5.45c-1.366-3.298-0.611-7.094,1.913-9.619
			l8.828-8.828c3.456-3.394,9.001-3.369,12.426,0.056c3.425,3.425,3.45,8.97,0.056,12.426l-8.828,8.828
			C366.519,422.796,364.273,423.727,361.931,423.724z"/>
		<path style="fill:#ECF0F1;" d="M326.621,423.724c-2.342,0.003-4.588-0.928-6.241-2.586l-8.828-8.828
			c-3.394-3.456-3.369-9.001,0.056-12.426c3.425-3.425,8.97-3.45,12.426-0.056l8.828,8.828c2.524,2.525,3.279,6.321,1.913,9.619
			C333.409,421.573,330.191,423.723,326.621,423.724z"/>
		<path style="fill:#ECF0F1;" d="M344.276,459.034c-4.875,0-8.828-3.952-8.828-8.828v-8.828c0-4.875,3.952-8.828,8.828-8.828
			s8.828,3.952,8.828,8.828v8.828C353.103,455.082,349.151,459.034,344.276,459.034z"/>
		<path style="fill:#ECF0F1;" d="M397.241,123.586c-3.57-0.001-6.788-2.152-8.154-5.45s-0.611-7.094,1.913-9.619l8.828-8.828
			c2.223-2.264,5.49-3.16,8.556-2.348c3.067,0.812,5.462,3.207,6.274,6.274c0.812,3.067-0.085,6.333-2.348,8.556L403.482,121
			C401.829,122.658,399.583,123.589,397.241,123.586z"/>
		<path style="fill:#ECF0F1;" d="M361.931,123.586c-2.342,0.003-4.588-0.928-6.241-2.586l-8.828-8.828
			c-3.394-3.456-3.369-9.001,0.056-12.426c3.425-3.425,8.97-3.45,12.426-0.056l8.828,8.828c2.524,2.525,3.279,6.321,1.913,9.619
			C368.719,121.435,365.501,123.585,361.931,123.586z"/>
		<path style="fill:#ECF0F1;" d="M379.586,158.897c-4.875,0-8.828-3.952-8.828-8.828v-8.828c0-4.875,3.952-8.828,8.828-8.828
			s8.828,3.952,8.828,8.828v8.828C388.414,154.944,384.462,158.897,379.586,158.897z"/>
	</g>
</g>
<g>
</g>
<g>
</g>
<g>
</g>
<g>
</g>
<g>
</g>
<g>
</g>
<g>
</g>
<g>
</g>
<g>
</g>
<g>
</g>
<g>
</g>
<g>
</g>
<g>
</g>
<g>
</g>
<g>
</g>
</svg>
