<svg id="_x33_0" enable-background="new 0 0 64 64" height="512" viewBox="0 0 64 64" width="512" xmlns="http://www.w3.org/2000/svg"><g><g><g fill="#e6e9ed"><path d="m10.73 34.48c.8.38 1.63.7 2.48.94 1.81 3.74 2.93 7.78 3.31 11.93l-1.27.96c-1.42 1.06-2.25 2.73-2.25 4.5 0 1.98-1.04 3.81-2.73 4.83l-2.27 1.36v-.71c0-1.37-.27-2.72-.79-3.96-.51-1.25-1.27-2.39-2.24-3.36-.95-.95-1.69-2.07-2.2-3.29-.5-1.22-.77-2.53-.77-3.87 0-1.84.5-3.64 1.44-5.22 1.01-1.67 2.58-2.93 4.43-3.55l2.39-.79v-.01c.15.08.31.16.47.24z"/><path d="m24.15 34.97c.47-.5 1-.94 1.59-1.31l.1-.06c2.74-1.71 5.81-2.84 9.02-3.29l1.22-.18c.61-.09 1.2-.27 1.75-.55.6-.3 1.13-.7 1.58-1.17l.01.01c1.18 1.17 2.51 2.16 3.95 2.95 1.45.79 3.01 1.38 4.63 1.74 2.65.59 5.18 1.62 7.48 3.06 1.4.88 2.54 2.09 3.31 3.5.78 1.41 1.21 3.01 1.21 4.66 0 1.75-.47 3.46-1.37 4.96l-.6.99c-.67 1.13-1.03 2.41-1.03 3.74 0 1.85.97 3.56 2.56 4.52l1.82 1.09c.38.23.62.64.62 1.09 0 .71-.57 1.28-1.28 1.28-2.42 0-4.76-.86-6.61-2.42l-.78-.66c-1.47-1.24-3.33-1.92-5.32-1.92h-.29c-1.83 0-3.62.58-5.11 1.66l-.08.05c-2.94 2.14-6.49 3.29-10.13 3.29h-1.31c-4.47 0-8.7-2.07-11.46-5.61l-.08-.12c-1.67-2.13-2.67-4.71-2.89-7.4l-.1-1.18c-.01-.11-.02-.23-.04-.34-.38-4.15-1.5-8.19-3.31-11.93 1.35.38 2.76.58 4.19.58 1.07 0 2.12-.1 3.17-.31z"/><path d="m53.52 7.04.48.96-4.38.02c-2.95.01-5.74 1.32-7.63 3.59l-.09.1c-1.23 1.49-1.9 3.32-1.9 5.22v.05c0 .68.08 1.35.25 2l.15.64c.4 1.58.6 3.2.6 4.84 0 1.08-.31 2.12-.86 3.01-.21.34-.45.65-.73.94-.45.47-.98.87-1.58 1.17-.55.28-1.14.46-1.75.55l-1.22.18c-3.21.45-6.28 1.58-9.02 3.29l-.1.06c-.59.37-1.12.81-1.59 1.31l-3.58.72c-1.05.21-2.1.31-3.17.31-1.43 0-2.84-.2-4.19-.58-.85-.24-1.68-.56-2.48-.94-.16-.08-.32-.16-.47-.24-1.87-.98-3.53-2.34-4.88-4.02-1.1-1.36-1.94-2.9-2.51-4.52-.57-1.63-.87-3.36-.87-5.1v-3.6c0-3.78 1.78-7.33 4.8-9.6 2.08-1.56 4.6-2.4 7.2-2.4h8.96c6 0 11.97-.8 17.76-2.38 1.51-.41 3.07-.62 4.64-.62 1.73 0 3.38.49 4.8 1.36 1.42.88 2.59 2.14 3.36 3.68zm-24.52 6.96c0-2.21-1.79-4-4-4s-4 1.79-4 4 1.79 4 4 4 4-1.79 4-4zm-4 10.3c0-.64-.26-1.21-.67-1.63-.42-.41-.99-.67-1.63-.67-.46 0-.9.13-1.28.39-1.58 1.05-3.43 1.61-5.33 1.61h-1.09c-.55 0-1.05.22-1.41.59-.37.36-.59.86-.59 1.41 0 2.21 1.79 4 4 4h2.3c1.58 0 3-.64 4.03-1.67s1.67-2.45 1.67-4.03zm-10-8.3c0-2.21-1.79-4-4-4s-4 1.79-4 4 1.79 4 4 4 4-1.79 4-4z"/></g><path d="m24.33 22.67c.41.42.67.99.67 1.63 0 1.58-.64 3-1.67 4.03s-2.45 1.67-4.03 1.67h-2.3c-2.21 0-4-1.79-4-4 0-.55.22-1.05.59-1.41.36-.37.86-.59 1.41-.59h1.09c1.9 0 3.75-.56 5.33-1.61.38-.26.82-.39 1.28-.39.64 0 1.21.26 1.63.67z" fill="#fcd770"/><circle cx="25" cy="14" fill="#fcd770" r="4"/><circle cx="11" cy="16" fill="#fcd770" r="4"/></g><g><path d="m25 19c2.757 0 5-2.243 5-5s-2.243-5-5-5-5 2.243-5 5 2.243 5 5 5zm0-8c1.654 0 3 1.346 3 3s-1.346 3-3 3-3-1.346-3-3 1.346-3 3-3z"/><path d="m16 16c0-2.757-2.243-5-5-5s-5 2.243-5 5 2.243 5 5 5 5-2.243 5-5zm-5 3c-1.654 0-3-1.346-3-3s1.346-3 3-3 3 1.346 3 3-1.346 3-3 3z"/><path d="m26 24.303c0-1.822-1.481-3.303-3.303-3.303-.653 0-1.287.192-1.832.555-1.419.945-3.069 1.445-4.773 1.445h-1.092c-1.654 0-3 1.346-3 3 0 2.757 2.243 5 5 5h2.303c3.693 0 6.697-3.004 6.697-6.697zm-12 1.697c0-.551.449-1 1-1h1.092c2.1 0 4.134-.616 5.882-1.781.215-.143.465-.219.723-.219.719 0 1.303.584 1.303 1.303 0 2.59-2.107 4.697-4.697 4.697h-2.303c-1.654 0-3-1.346-3-3z"/><path d="m61.894 58.771-1.819-1.091c-1.28-.768-2.075-2.171-2.075-3.664 0-1.138.307-2.25.887-3.218l.598-.997c.991-1.652 1.515-3.541 1.515-5.467 0-3.687-1.867-7.055-4.993-9.009-2.402-1.502-5.024-2.576-7.792-3.191-2.775-.617-5.326-1.935-7.439-3.821.776-1.108 1.224-2.438 1.224-3.857 0-1.71-.21-3.42-.626-5.083l-.158-.633c-.144-.573-.216-1.163-.215-1.809.002-1.661.595-3.286 1.67-4.576l.088-.105c1.703-2.043 4.206-3.221 6.865-3.232l5.99-.025-1.199-2.399c-1.725-3.45-5.193-5.594-9.052-5.594-1.658 0-3.309.221-4.907.657-5.7 1.555-11.586 2.343-17.495 2.343h-8.961c-2.794 0-5.564.923-7.8 2.6-3.256 2.442-5.2 6.33-5.2 10.4v3.597c0 3.71 1.276 7.35 3.595 10.247.972 1.215 2.106 2.248 3.339 3.124l-.379.126c-2.078.692-3.842 2.108-4.969 3.986-1.038 1.73-1.586 3.709-1.586 5.725 0 2.974 1.158 5.768 3.259 7.868 1.767 1.768 2.741 4.118 2.741 6.617v2.476l3.782-2.269c1.985-1.191 3.218-3.369 3.218-5.684 0-1.38.633-2.695 1.694-3.57.287 2.788 1.338 5.426 3.062 7.643l.087.112c2.967 3.814 7.431 6.002 12.249 6.002h1.308c3.875 0 7.582-1.202 10.799-3.533 1.324-.96 2.888-1.467 4.524-1.467h.291c1.748 0 3.364.584 4.672 1.688l.78.657c2.027 1.713 4.604 2.655 7.257 2.655 1.256 0 2.277-1.021 2.277-2.276 0-.796-.424-1.545-1.106-1.953zm-55.738-29.176c-2.035-2.545-3.156-5.741-3.156-8.998v-3.597c0-3.444 1.645-6.733 4.4-8.8 1.892-1.419 4.236-2.2 6.6-2.2h8.961c6.086 0 12.149-.812 18.021-2.413 1.428-.39 2.901-.587 4.381-.587 2.912 0 5.547 1.522 7.002 4.007l-2.749.011c-3.252.014-6.312 1.454-8.393 3.951l-.088.105c-1.375 1.649-2.133 3.728-2.135 5.91 0 .756.092 1.51.275 2.242l.158.632c.377 1.504.567 3.051.567 4.6 0 1.803-1.002 3.424-2.615 4.231-.457.228-.944.38-1.448.452l-1.221.175c-3.362.48-6.528 1.636-9.41 3.438l-.092.058c-.576.36-1.101.777-1.57 1.24l-3.275.654c-.972.195-1.97.294-2.966.294-4.399 0-8.499-1.97-11.247-5.405zm8.495 17.917c-1.66 1.246-2.651 3.227-2.651 5.301 0 1.616-.861 3.137-2.247 3.969l-.799.479c-.236-2.646-1.38-5.102-3.281-7.003-1.724-1.723-2.673-4.015-2.673-6.453 0-1.653.45-3.276 1.301-4.695.881-1.47 2.261-2.576 3.886-3.118l1.993-.665c.738.362 1.508.654 2.295.901 1.585 3.382 2.588 6.966 2.993 10.671zm46.072 13.488c-2.181 0-4.3-.775-5.967-2.183l-.78-.657c-1.65-1.394-3.767-2.16-5.962-2.16h-.291c-2.06 0-4.029.639-5.775 1.904-2.796 2.026-6.097 3.096-9.548 3.096h-1.309c-4.196 0-8.085-1.906-10.67-5.229l-.087-.112c-1.546-1.987-2.474-4.364-2.683-6.873l-.099-1.184c-.311-3.739-1.202-7.366-2.641-10.812.82.124 1.649.21 2.492.21 1.128 0 2.258-.112 3.358-.333l1.16-.231c-.603 1.219-.927 2.581-.924 3.998v.104c.003 1.812.536 3.566 1.542 5.074l2.965 4.447c.978 1.468 1.496 3.177 1.496 4.941v1h1c2.818 0 5.25-1.913 5.914-4.652l.163-.671c.424-1.75 1.773-3.109 3.522-3.547l.219-.056c3.069-.769 5.204-3.5 5.19-6.642v-.118c-.01-2.375-.711-4.674-2.028-6.648l-.147-.221-1.665 1.109.147.221c1.099 1.647 1.684 3.565 1.692 5.547v.118c.01 2.219-1.502 4.149-3.678 4.694l-.219.056c-2.471.618-4.378 2.54-4.978 5.016l-.163.671c-.37 1.524-1.555 2.667-3.027 3.014-.179-1.763-.784-3.453-1.776-4.941l-2.965-4.447c-.786-1.179-1.203-2.552-1.206-3.967v-.104c-.004-2.425 1.221-4.639 3.279-5.925l.092-.059c2.642-1.651 5.546-2.711 8.631-3.152l1.221-.174c.717-.103 1.41-.319 2.06-.644.403-.202.769-.45 1.115-.719 2.377 2.137 5.253 3.632 8.385 4.328 2.546.565 4.957 1.553 7.166 2.934 2.541 1.586 4.056 4.32 4.056 7.313 0 1.562-.425 3.098-1.229 4.438l-.598.997c-.768 1.278-1.173 2.747-1.173 4.247 0 2.191 1.167 4.253 3.047 5.379l1.819 1.091c.083.049.134.14.134.238 0 .152-.124.276-.277.276z"/></g></g></svg>