<?xml version="1.0"?>
<svg xmlns="http://www.w3.org/2000/svg" viewBox="0 0 512 512" width="512" height="512"><g id="Fill_out_line" data-name="Fill out line"><polygon points="183.239 136 80 328 160 296 208 256 183.239 136" style="fill:#4386c5"/><polygon points="160 296 80 328 39.49 212.26 24 168 80 144 160 296" style="fill:#529fe1"/><polygon points="100 182 39.49 212.26 24 168 80 144 100 182" style="fill:#4386c5"/><path d="M256,136l-32-24H204.3342a8.66842,8.66842,0,0,0-6.93472,3.46736l-9.60821,12.81094a40.64022,40.64022,0,0,0-6.78994,34.72677l1.97915,7.52075a534.82808,534.82808,0,0,1,4.87363,252.13067L184,440H440l-.51618-2.839A959.93388,959.93388,0,0,1,424,265.44281V112H288Z" style="fill:#529fe1"/><path d="M288,136,228.93051,62.1691A22.49775,22.49775,0,0,1,224,48.11419V47.724A23.69751,23.69751,0,0,1,247.69,24h104.5657a52,52,0,0,1,28.84441,8.73338l0,0A78.37387,78.37387,0,0,1,416,97.94443V112h-.00006A352.93846,352.93846,0,0,0,292.075,134.47188Z" style="fill:#2676b3"/><path d="M288,136H256l-7.65-5.73L224,112V47.68994A23.78505,23.78505,0,0,0,229.19,62.49l32.35,40.42993,24.62,30.78Z" style="fill:#4386c5"/><path d="M416,97.93994V112a352.871,352.871,0,0,0-123.93,22.47L288,136H256a46.11546,46.11546,0,0,1,.69-8,47.14193,47.14193,0,0,1,29.04-35.83008L358.03,63.3999A20.4223,20.4223,0,0,0,350.48,24h1.78a52.02979,52.02979,0,0,1,28.84,8.73,78.41675,78.41675,0,0,1,34.9,65.21Z" style="fill:#529fe1"/><path d="M488,248,368,384l-40-32,17.14-22.85986L400,256l-26.03-78.09009A50.4227,50.4227,0,0,1,421.93,111.54,49.79693,49.79693,0,0,1,461.17,130.47a64.71785,64.71785,0,0,1,13.46,30.65991Z" style="fill:#4386c5"/><rect x="184" y="440" width="256" height="48" style="fill:#4386c5"/><polygon points="192 392 248 336 336 336 384 384 384 440 184 440 192 392" style="fill:#4386c5"/><path d="M495.90674,246.7832l-13.36475-86.873a72.9702,72.9702,0,0,0-15.12011-34.43848A57.82176,57.82176,0,0,0,424,103.56934v-5.625a86.201,86.201,0,0,0-38.4624-71.86719A59.81068,59.81068,0,0,0,352.25586,16H247.68994a31.74211,31.74211,0,0,0-31.68909,31.69043H216v56.52686a48.64543,48.64543,0,0,0-39.96454,28.28637l-47.02112,87.44776-41.93524-79.677a8.0024,8.0024,0,0,0-10.23047-3.62793l-56,24a7.9999,7.9999,0,0,0-4.39941,9.9961l56,160a7.99966,7.99966,0,0,0,10.522,4.78515l80-32a7.99773,7.99773,0,0,0,2.15027-1.28222h.00012l.00257-.0022.00048-.00024,25.83381-21.52784A560.05185,560.05185,0,0,1,178.36035,428.499l-2.16992,9.76563.00354.00073A8.0143,8.0143,0,0,0,176,440v48a8.00008,8.00008,0,0,0,8,8H440a8.00008,8.00008,0,0,0,8-8V440a8.01985,8.01985,0,0,0-.13464-1.42969l.00573-.001a987.793,987.793,0,0,1-14.09387-117.02588L493.99854,253.293A7.99942,7.99942,0,0,0,495.90674,246.7832ZM378.67139,40.7793A70.22506,70.22506,0,0,1,408,97.94434v6.14355a359.54993,359.54993,0,0,0-118.73389,22.89356L286.54932,128H264.81055a38.9453,38.9453,0,0,1,23.87939-28.39746L360.99072,70.833A28.28441,28.28441,0,0,0,378.67139,40.7793ZM232,78.811l23.47955,29.34741a54.77641,54.77641,0,0,0-5.554,13.28564L232,108ZM247.68994,32H350.48242a12.423,12.423,0,0,1,4.59326,23.96582L282.77441,84.73633a55.44636,55.44636,0,0,0-17.01257,10.6626l-30.58459-38.228A14.54919,14.54919,0,0,1,232,48.11426v-.39063A15.72474,15.72474,0,0,1,247.68994,32Zm-27.356,88h.999L240,134.00024V200h16V144h32v56h16V138.70459a343.38479,343.38479,0,0,1,75.12628-16.727,58.746,58.746,0,0,0-12.74542,58.46191l24.7041,74.11426L336.00024,328H248a8.00035,8.00035,0,0,0-5.65674,2.34277L204.3634,368.323a577.52784,577.52784,0,0,0-15.6217-207.34058,32.49055,32.49055,0,0,1,5.45752-27.915A32.82383,32.82383,0,0,1,220.334,120ZM376,387.31348V432H193.97278l.00671-.03027q4.15732-18.70752,7.02844-37.66309L251.31348,344H332.686ZM76.36133,154.26367,89.11615,178.4978,44.03827,201.03638,34.019,172.41016Zm8.42822,163.2041L49.3667,216.26025l47.20294-23.60107,52.216,99.21Zm77.68451-33.94287-24.47363-46.5,36.37164-67.64233a557.71055,557.71055,0,0,1,15.29236,91.48389ZM432,480H192V448H432Zm-1.5329-48H392V384a8.00076,8.00076,0,0,0-2.34326-5.65723L386.471,375.157l32.4198-36.74219C421.278,369.72339,425.15564,401.08789,430.4671,432Zm-55.33166-68.17847-26.28675-26.28686L406.3999,260.7998a7.99982,7.99982,0,0,0,1.18946-7.33007l-26.02979-78.08985a42.42007,42.42007,0,0,1,73.36816-39.91308,56.94178,56.94178,0,0,1,11.8003,26.87695l12.79541,83.1709Z"/></g></svg>
