<svg id="Capa_1" enable-background="new 0 0 512 512" height="512" viewBox="0 0 512 512" width="512" xmlns="http://www.w3.org/2000/svg"><g><path d="m449.521 74.692c-105.927-105.926-195.769-60.396-260.648 12.949-3.994-43.768-19.707-79.09-60.491-79.09-95.808 0-53.279 194.919-45.42 236.367 0 0 2.9 8.428 1.25 11.708l183.375 183.375c63.844-32.118 375.337-171.906 181.934-365.309z" fill="#f6ee86"/><path d="m436.36 161.469c-48.822 14.057-93.937-31.146-79.9-79.9-29.754-10.945-45.3-40.572-41.686-68.958-48.342 3.79-90.78 35.327-125.901 75.03-3.994-43.767-19.707-79.09-60.491-79.09-60.048 0-65.753 76.566-59.713 143.928 69.795-3.588 75.579 80.171 101.421 82.844 26.89 2.782 69.229-23.725 91.901-1.053 26.545 26.545-14.603 79.152 8.99 108.812 23.999 30.17 74.234 3.165 107.123 36.212 65.202-42.474 132.535-103.227 133.866-177.366-30.255 7.17-63.797-8.343-75.61-40.459z" fill="#6ad6bd"/><path d="m232.657 46.503c-15.626 11.757-30.25 25.838-43.784 41.138-3.994-43.768-19.707-79.09-60.491-79.09-60.048 0-65.753 76.566-59.713 143.928 69.795-3.588 75.579 80.171 101.421 82.844 14.487 1.499 33.458-5.502 51.422-8.735-4.018-63.783 1.224-129.189 11.145-180.085z" fill="#2bbcb9"/><path d="m221.508 226.593c-17.963 3.233-36.931 10.228-51.417 8.729-25.843-2.673-31.626-86.432-101.421-82.844 3.597 40.116 11.36 76.969 14.293 92.439 0 0 2.9 8.428 1.25 11.708l183.375 183.376c5.858-2.947 13.813-6.808 23.26-11.527-44.253-42.753-64.249-120.999-69.34-201.881z" fill="#eed076"/><g><g fill="#fff"><ellipse cx="213.815" cy="145.644" rx="33.49" ry="42.054" transform="matrix(.707 -.707 .707 .707 -40.361 193.85)"/><ellipse cx="374.998" cy="306.826" rx="33.49" ry="42.054" transform="matrix(.707 -.707 .707 .707 -107.125 355.029)"/></g><g fill="#4e5660"><path d="m253.941 147.678c-1.919 0-3.839-.732-5.303-2.197-2.929-2.929-2.929-7.678 0-10.606l12.156-12.156c2.929-2.929 7.678-2.93 10.607 0 2.929 2.929 2.929 7.678 0 10.606l-12.156 12.156c-1.465 1.465-3.385 2.197-5.304 2.197z"/><path d="m380.463 274.2c-1.919 0-3.839-.732-5.303-2.197-2.929-2.929-2.929-7.677 0-10.606l12.156-12.156c2.929-2.929 7.678-2.93 10.606 0 2.929 2.929 2.929 7.677 0 10.607l-12.156 12.156c-1.464 1.464-3.383 2.196-5.303 2.196z"/><path d="m332.088 227.33c-10.259.001-20.132-4.057-27.426-11.351-7.924-7.924-12.028-18.892-11.259-30.093.284-4.132 3.858-7.26 7.996-6.969 4.132.284 7.253 3.863 6.969 7.996-.472 6.874 2.043 13.602 6.901 18.459 4.858 4.858 11.588 7.372 18.46 6.902 4.14-.276 7.712 2.837 7.996 6.969.284 4.133-2.836 7.712-6.969 7.996-.891.06-1.781.091-2.668.091z"/></g></g><path d="m283.865 414.281c-11.678-11.678-26.614-17.761-41.005-18.032-2.938-8.498-7.917-16.646-14.9-23.628-9.129-9.129-20.249-14.834-31.543-17.023-2.189-11.294-7.894-22.414-17.023-31.543s-20.249-14.834-31.543-17.023c-2.189-11.294-7.894-22.414-17.023-31.543-6.982-6.982-15.129-11.962-23.628-14.899-.272-14.391-6.354-29.327-18.032-41.005-22.156-22.156-56.037-24.196-75.676-4.557s-17.599 53.52 4.557 75.676c6.982 6.982 15.129 11.962 23.628 14.9.272 14.391 6.354 29.327 18.032 41.005 9.129 9.129 20.249 14.834 31.543 17.023 2.189 11.294 7.894 22.414 17.023 31.543s20.249 14.834 31.543 17.023c2.189 11.294 7.894 22.414 17.023 31.543 11.678 11.678 26.614 17.761 41.005 18.032 2.938 8.498 7.917 16.646 14.899 23.628 22.156 22.156 56.037 24.196 75.676 4.557 19.64-19.64 17.6-53.521-4.556-75.677z" fill="#a2ddfd"/><path d="m121.697 340.714c-19.353-7.301-20.418-54.98 2.223-71.186-5.236-3.924-10.89-6.923-16.719-8.938-.272-14.391-6.354-29.326-18.032-41.005-22.156-22.156-56.037-24.196-75.676-4.557s-17.599 53.52 4.557 75.676c6.982 6.982 15.129 11.962 23.628 14.9.272 14.391 6.354 29.327 18.032 41.005 9.129 9.129 20.249 14.834 31.543 17.023 2.189 11.294 7.894 22.414 17.023 31.543s20.249 14.833 31.543 17.023c-27.377-12.823-29.452-56.313-18.122-71.484z" fill="#7acdf9"/></g></svg>