<svg id="_x33_0" enable-background="new 0 0 64 64" height="512" viewBox="0 0 64 64" width="512" xmlns="http://www.w3.org/2000/svg"><g><path d="m58.534 44.597c-2.588-2.912-6.123-4.912-9.953-5.63l-5.482-1.027c-1.848-.347-3.338-1.723-3.874-3.495 1.068-.85 2.002-1.877 2.72-3.074l3.793-6.321c1.48-2.467 2.263-5.292 2.263-8.17-.001-8.757-7.124-15.88-15.88-15.88h-.242c-8.756 0-15.879 7.123-15.879 15.879 0 2.878.782 5.703 2.263 8.17l3.793 6.321c.718 1.197 1.653 2.224 2.721 3.074-.536 1.773-2.025 3.148-3.875 3.495l-5.482 1.027c-3.829.718-7.364 2.718-9.954 5.63-2.88 3.24-4.466 7.411-4.466 11.745v6.659h62v-6.659c0-4.334-1.586-8.505-4.466-11.744zm.93 4.985c.605 1.266 1.04 2.609 1.288 3.995-2.42 1.437-5.026 2.481-7.752 3.149v-2.078c2.556-1.142 4.759-2.868 6.464-5.066zm-10.44-8.192.219-.219c1.137.295 2.233.723 3.274 1.261-2.936 4.431-6.617 8.23-10.967 11.304-1.905-.392-3.783-.888-5.627-1.484 4.678-3.219 9.089-6.85 13.101-10.862zm-8.046-2.071c.548.268 1.135.469 1.752.585l4.139.776c-4.076 3.985-8.53 7.601-13.277 10.756-2.204-.828-4.347-1.81-6.422-2.921 4.921-2.55 9.558-5.637 13.808-9.196zm-1.704-1.185c-1.112.917-2.251 1.801-3.414 2.652-1.719-.962-3.214-2.261-4.402-3.82.181.008.359.034.542.034 1.95 0 3.839-.511 5.512-1.417.391.978 1.004 1.842 1.762 2.551zm.955-7.793c-.472.787-1.059 1.483-1.72 2.092-2.029-1.435-3.947-3.035-5.731-4.78 2.706.724 5.476 1.162 8.284 1.299zm3.793-6.321-1.779 2.964c-4.202-.083-8.326-.859-12.272-2.317-1.3-1.511-2.507-3.099-3.605-4.755 5.522 2.586 11.577 3.98 17.677 4.069-.007.013-.013.026-.021.039zm-12.143-21.02h.242c1.331 0 2.614.199 3.833.55-3.492 3.139-7.636 5.576-12.152 7.12l-3.792-.948c2.434-4.021 6.836-6.722 11.869-6.722zm-13.831 14.976c-.029-.364-.048-.73-.048-1.097 0-1.889.382-3.689 1.068-5.332l7.228 1.808c1.714.428 3.477.645 5.241.645l.277-.002-.021-2-.256.002c-1.463 0-2.925-.173-4.354-.498 4.001-1.726 7.698-4.161 10.853-7.16 1.946.922 3.64 2.286 4.964 3.955-.969.698-1.999 1.31-3.078 1.82l.855 1.809c1.173-.555 2.295-1.22 3.351-1.976 1.186 2.039 1.872 4.403 1.872 6.929 0 1.761-.342 3.497-.987 5.121h-.351c-5.865 0-11.704-1.274-17.037-3.7.45-.148.899-.303 1.344-.47l2.382-.894-.703-1.873-2.381.894c-3.286 1.232-6.72 1.905-10.219 2.019zm3.37 7.683-.695-.398-.745-1.242c-.757-1.261-1.298-2.63-1.622-4.052 1.782-.071 3.548-.281 5.288-.627 2.08 3.445 4.612 6.635 7.48 9.483-3.406-.39-6.719-1.458-9.706-3.164zm2.353 4.682-1.083-1.805c3.373 1.531 7.036 2.372 10.748 2.449 1.09.952 2.224 1.848 3.391 2.698-1.449.843-3.11 1.317-4.827 1.317-3.352 0-6.505-1.785-8.229-4.659zm2.717 5.242c.711.385 1.468.682 2.245.915l.108.181c1.309 2.182 3.104 4.009 5.236 5.368-.85.583-1.709 1.152-2.582 1.699-2.848-1.088-5.421-2.797-7.518-5.002 1.114-.785 1.999-1.878 2.511-3.161zm-5.217 4.321c.294-.055.581-.13.861-.221 2.033 2.255 4.502 4.072 7.252 5.341-1.336.776-2.695 1.513-4.077 2.204l-.218.109c-3.122-1.857-6.066-4.026-8.765-6.506zm-10.271 21.096h-8v-4.659c0-.204.02-.406.028-.61 2.506 1.39 5.178 2.414 7.972 3.053zm0-4.274c-2.725-.669-5.332-1.712-7.752-3.149.248-1.387.682-2.729 1.288-3.995 1.705 2.198 3.908 3.924 6.464 5.066zm2 4.274v-10h-2v1.432c-2.154-1.122-3.984-2.739-5.374-4.75.405-.611.841-1.204 1.334-1.758.57-.641 1.198-1.224 1.863-1.759l4.874 4.313c3.466 3.058 7.271 5.729 11.298 8.01-3.296 1.703-6.708 3.224-10.183 4.511h-1.812zm7.146 0c2.367-1.025 4.696-2.142 6.961-3.354 2.448 1.274 4.975 2.391 7.559 3.354zm30.854 0h-9.857c-9.622-2.586-18.653-7.43-26.122-14.021l-4.516-3.995c1.097-.667 2.27-1.208 3.498-1.593 9.105 8.784 21.024 14.198 33.643 15.249l3.354.28zm0-6.086-3.187-.265c-1.189-.099-2.369-.251-3.543-.429 3.905-3.017 7.241-6.632 9.966-10.765 1.026.708 1.972 1.534 2.804 2.47.492.554.928 1.147 1.333 1.757-1.39 2.01-3.22 3.628-5.374 4.75v-1.432h-2v3.914zm10 6.086h-8v-2.216c2.795-.638 5.466-1.663 7.972-3.053.008.204.028.405.028.61z"/><g><g><path d="m37 14c-1.103 0-2 .897-2 2s.897 2 2 2 2-.897 2-2-.897-2-2-2zm0 9c-3.859 0-7-3.141-7-7s3.141-7 7-7 7 3.141 7 7-3.141 7-7 7z" fill="#f0bc5e"/></g><g><path d="m37 19c-1.654 0-3-1.346-3-3s1.346-3 3-3 3 1.346 3 3-1.346 3-3 3zm0-4c-.552 0-1 .448-1 1s.448 1 1 1 1-.448 1-1-.448-1-1-1z"/></g></g></g></svg>