<svg height="512" viewBox="0 0 512 512" width="512" xmlns="http://www.w3.org/2000/svg"><g id="Flat"><path d="m488 408-216 16-16-88-8.71 47.92-2.88 15.81-4.41 24.27-216-16 32-280 200 24 32-3.84 168-20.16 27.47 240.35 1.82 15.9z" fill="#45a8fb"/><g fill="#4386c5"><path d="m247.29 383.92-2.88 15.81-189.07-15.76 1.32-15.94z"/><path d="m485.29 384.25-188.63 15.72-1.32-15.94 188.13-15.68z"/><path d="m256 112v40l-16-1.92-37.2-4.46-40.4-4.85-106.4-12.77 8-40 103.38 12.92 40.37 5.05z"/><path d="m456 128-106.4 12.77-40.4 4.85-53.2 6.38v-40l48.25-6.03 40.37-5.05 103.38-12.92z"/></g><path d="m352 160-40 8-2.8-22.38-4.95-39.65 40.37-5.05 4.98 39.85z" fill="#2676b3"/><path d="m207.75 105.97-4.95 39.65-2.8 22.38-40-8 2.4-19.23 4.98-39.85z" fill="#2676b3"/><path d="m288 148.16v106.86a42.24017 42.24017 0 0 1 -32 40.98v-144z" fill="#4386c5"/><path d="m468.65991 238.75a92.5589 92.5589 0 0 1 -63.60986-73.14l-5.15-30.88-15.90005 1.91 5.26 31.6a108.58544 108.58544 0 0 0 80.80005 87.52l.55995.14z" fill="#2676b3"/><path d="m112.1 134.73-5.15 30.88a92.5589 92.5589 0 0 1 -63.60986 73.14l-1.96014 17.15.55994-.13995a108.58544 108.58544 0 0 0 80.80006-87.52005l5.26-31.6z" fill="#2676b3"/><path d="m256 112v40l-16-1.92v-40.08z" fill="#2676b3"/><path d="m296 147.2v107.82a50.17157 50.17157 0 0 1 -38.06006 48.74 7.92972 7.92972 0 0 1 -1.93994.24v-16.31a34.17089 34.17089 0 0 0 24-32.67v-89.9l-24 2.88v-16z" fill="#2676b3"/></g></svg>