<?xml version="1.0" encoding="iso-8859-1"?>
<!-- Generator: Adobe Illustrator 19.0.0, SVG Export Plug-In . SVG Version: 6.00 Build 0)  -->
<svg version="1.1" id="Capa_1" xmlns="http://www.w3.org/2000/svg" xmlns:xlink="http://www.w3.org/1999/xlink" x="0px" y="0px"
	 viewBox="0 0 512.002 512.002" style="enable-background:new 0 0 512.002 512.002;" xml:space="preserve">
<path style="fill:#DE405B;" d="M410.953,402.238l-37.662-115.262c-1.186-8.894-0.169-18.008,2.958-26.434
	c11.606-31.277,17.748-64.036,18.252-97.368l0.678-44.827c0.061-4.017-1.493-7.891-4.312-10.752
	c-2.819-2.862-6.669-4.474-10.687-4.474h-11.449V15c0-8.284-6.716-15-15-15h-53.532c-8.284,0-15,6.716-15,15v35.921
	c0,16.1-13.098,29.198-29.198,29.198s-29.198-13.098-29.198-29.198V15c0-8.284-6.716-15-15-15h-53.532c-8.284,0-15,6.716-15,15
	v88.121h-11.449c-4.018,0-7.867,1.612-10.687,4.474s-4.373,6.736-4.312,10.753l0.679,44.827c0.504,33.332,6.646,66.09,18.252,97.368
	c3.126,8.425,4.143,17.54,2.958,26.434L101.05,402.239c-2.563,7.843,1.69,16.283,9.518,18.891l3.979,1.325
	c39.973,13.314,84.584,46.712,111.002,83.098l0.184,0.254c2.821,3.892,7.337,6.195,12.145,6.195l36.25-0.001
	c4.809,0,9.326-2.306,12.147-6.2c26.494-36.571,71.337-70.122,111.584-83.484l3.561-1.182
	C409.256,418.533,413.517,410.087,410.953,402.238z"/>
<path style="fill:#FF667C;" d="M256.001,80.12c-16.1,0-29.198-13.098-29.198-29.198V15c0-8.284-6.716-15-15-15h-53.532
	c-8.284,0-15,6.716-15,15v88.121h-11.449c-4.018,0-7.867,1.612-10.687,4.474s-4.373,6.736-4.312,10.753l0.679,44.827
	c0.504,33.332,6.646,66.09,18.252,97.368c3.126,8.425,4.143,17.54,2.958,26.434L101.05,402.239
	c-2.563,7.843,1.69,16.283,9.518,18.891l3.979,1.325c39.973,13.314,84.584,46.712,111.002,83.098l0.184,0.254
	c2.821,3.892,7.337,6.195,12.145,6.195L256.001,512V80.12z"/>
<path style="fill:#FFCC31;" d="M394.196,172.481h-276.39c0.831,17.761,3.255,35.336,7.274,52.582h261.842
	C390.941,207.817,393.365,190.243,394.196,172.481z"/>
<path style="fill:#FFF263;" d="M256.001,172.481H117.806c0.831,17.761,3.255,35.336,7.274,52.582h130.921V172.481z"/>
<g>
</g>
<g>
</g>
<g>
</g>
<g>
</g>
<g>
</g>
<g>
</g>
<g>
</g>
<g>
</g>
<g>
</g>
<g>
</g>
<g>
</g>
<g>
</g>
<g>
</g>
<g>
</g>
<g>
</g>
</svg>
