<?xml version="1.0" encoding="utf-8"?>
<!-- Generator: Adobe Illustrator 24.0.1, SVG Export Plug-In . SVG Version: 6.00 Build 0)  -->
<svg version="1.1" id="Calque_1" xmlns="http://www.w3.org/2000/svg" xmlns:xlink="http://www.w3.org/1999/xlink" x="0px" y="0px"
	 viewBox="0 0 410.8 371" style="enable-background:new 0 0 410.8 371;" xml:space="preserve">
<style type="text/css">
	.st0{fill:none;stroke:#1A0C1C;stroke-miterlimit:10;}
</style>
<title>LOGO CONTOURS</title>
<path class="st0" d="M217.1,342.1L217.1,342.1C218.2,342,218.2,342,217.1,342.1z"/>
<path class="st0" d="M195.7,342.1L195.7,342.1C194.6,342,194.6,342,195.7,342.1z"/>
<path class="st0" d="M409.9,145.9c0,0.3-0.1,0.7-0.2,1c-2,10.7-7.7,21.6-13.7,30.6c-5.9,8.9-13.3,16.7-21.8,23.2
	c-2.8,2.1-5.7,4.1-8.6,6.2l-4.3,3.1c-0.4,0.3-1.5,0.9-2.6,1.6c-0.1,0.6-0.1,1.2-0.2,1.8c-6.2,50.1-72.4,109.3-70.3,108.1
	c14.7,6.3,24,16.5,22.7,26.6c-1.9,14.4-24.5,23.3-50.6,19.8c-22.2-2.9-39.8-13.9-43.3-25.9c1.1-0.1,0,0,0,0h0
	c-3.2,0.2-6.9,0.3-10.2,0.3h-1c-3.3,0-11.3-0.3-10.2-0.3c-3.5,12-21,23-43.3,25.9c-26,3.4-48.7-5.5-50.6-19.8
	c-1.3-10.1,24.8-25.4,22.7-26.6c-37-21.1-64.1-58-70.3-108.1c-0.1-0.6-0.2-1.2-0.2-1.8c-1.1-0.7-2.2-1.3-2.6-1.6l-4.3-3.1
	c-2.8-2.1-5.8-4.1-8.6-6.2c-8.5-6.5-15.9-14.3-21.8-23.2c-6-9-11.8-19.9-13.7-30.6c-0.1-0.3-0.1-0.7-0.1-1c-0.3-2.3-0.3-5.9,2-7.2
	c3.6-2.4,7.3-0.8,10.8,0.9c6.9,3.1,14.1,5.5,21.5,6.9c1.5,0.3,14.7,2.9,19.8,3.4c0,0,0-0.1,0-0.1C76.4,56,158.8,2.3,206.4,2.3
	c47.6,0,130,53.8,149.3,147.6c0,0,0,0,0,0.1c5.1-0.5,18.3-3.1,19.8-3.4c7.4-1.5,14.7-3.8,21.5-6.9c3.5-1.7,7.2-3.3,10.8-0.9
	C410.2,140,410.2,143.6,409.9,145.9z"/>
</svg>
