<svg height="512" viewBox="0 0 512 512" width="512" xmlns="http://www.w3.org/2000/svg"><g id="Fill_out_line" data-name="Fill out line"><path d="m407.71 472-64 16-112-304-49.69 130.99-38.31 101.01-39.71-152 3.1-13.34 28.43-122.47 4.04-17.42 10.48-45.14 3.94-16.99 5.72-24.64h144l5.75 24.79 3.91 16.84 10.48 45.13 4.05 17.43z" fill="#529fe1"/><path d="m143.714 416 88 48 40-56-167.714-144z" fill="#529fe1"/><path d="m159.71428 24 27.624 18.416a80 80 0 0 0 88.752 0l27.624-18.416z" fill="#4386c5"/><path d="m263.71 83.19v43.83a42.24023 42.24023 0 0 1 -32 40.98v-80.15a111.69727 111.69727 0 0 0 32-4.66z" fill="#4386c5"/><path d="m415.50732 470.19092-104-448a8.00049 8.00049 0 0 0 -7.79296-6.19092h-144a8.00049 8.00049 0 0 0 -7.793 6.19092l-55.71436 240 .00348.00073a7.98163 7.98163 0 0 0 .04926 3.83081l39.71435 152a7.99813 7.99813 0 0 0 3.90967 5.00049l88 48a7.99577 7.99577 0 0 0 10.34033-2.373l40-56a8 8 0 0 0 -1.29834-10.71972l-90.00575-77.27923 44.685-117.80627 104.60252 283.92089a7.993 7.993 0 0 0 9.44727 4.99561l64-16a8.00061 8.00061 0 0 0 5.85253-9.57031zm-241.48193-407.80567-12.99768-8.66525 3.86578-16.65271 18.00739 12.005a87.94555 87.94555 0 0 0 41.03137 14.46606l-.14361 16.01019a103.62238 103.62238 0 0 1 -49.76325-17.16329zm-1.1922 18.02869a52.97327 52.97327 0 0 1 -24.17132 26.57465l8.50018-36.61646 7.98834 5.32562q3.76511 2.51025 7.6828 4.71619zm18.94269-44.65417-5.63965-3.75977h91.15625l-5.63965 3.75977a71.81445 71.81445 0 0 1 -79.87695 0zm48.157 27.73883a87.95174 87.95174 0 0 0 40.59491-14.42633l18.00739-12.005 3.86582 16.65273-12.99768 8.66522a103.61927 103.61927 0 0 1 -49.6142 17.1496zm58.3454 12.19915 7.98834-5.32562 8.50025 36.61658a52.971 52.971 0 0 1 -24.17147-26.57465q3.91425-2.20752 7.68292-4.71631zm-68.95455 377.88525-78.74316-42.95069-32.36866-123.88573 142.74024 122.55713zm-116.43473-192.49523 31.34277-135.01563a68.92449 68.92449 0 0 0 43.05253-38.75225 119.667 119.667 0 0 0 44.43006 8.53216 120.24073 120.24073 0 0 0 24.20416-2.47272l-.20416 33.63581a34.19159 34.19159 0 0 1 -15.71436 28.80493v-43.82007h-16v69.78052l-49.9884 131.78723zm235.85026 217.40979-108.73926-295.14929v-9.62867a50.14316 50.14316 0 0 0 31.71436-46.6556l.23181-38.15832q2.11313-.75275 4.19812-1.58569a68.92406 68.92406 0 0 0 43.05271 38.75221l78.94556 340.07428z"/></g></svg>