<?xml version="1.0" encoding="utf-8"?>
<!-- Generator: Adobe Illustrator 24.0.1, SVG Export Plug-In . SVG Version: 6.00 Build 0)  -->
<svg version="1.1" id="Capa_1" xmlns="http://www.w3.org/2000/svg" xmlns:xlink="http://www.w3.org/1999/xlink" x="0px" y="0px"
	 viewBox="0 0 259.8 259.8" style="enable-background:new 0 0 259.8 259.8;" xml:space="preserve">
<style type="text/css">
	.st0{fill:#F1DC24;}
</style>
<path class="st0" d="M178,81.7h-19.4c-5.8,0-9.9-5.6-8.2-11.1l18.5-59.5c1.7-5.5-2.4-11.1-8.2-11.1H88.2c-4.4,0-8,3.3-8.5,7.6
	L67.3,123.9c-0.5,5.1,3.4,9.5,8.5,9.5h11.1c5.1,0,9.1,4.5,8.5,9.6l-9.9,79c-1.1,9.1,10.8,13.3,15.7,5.6l84-132.8
	C188.9,89.1,184.8,81.7,178,81.7z M84,108.9l9.2-86.2c0.5-4.3,4.1-7.6,8.5-7.6h38.7c5.8,0,9.9,5.6,8.2,11.1l-18.5,59.5
	c-1.7,5.5,2.4,11.1,8.2,11.1h12.6c6.7,0,10.8,7.4,7.2,13.1l-33.6,53.1c-4.9,7.7-16.8,3.4-15.7-5.6l3.7-29.3c0.6-5.1-3.3-9.6-8.5-9.6
	l-11.4,0C87.4,118.3,83.4,113.9,84,108.9z"/>
</svg>
