<svg height="512pt" viewBox="0 -75 512.00072 512" width="512pt" xmlns="http://www.w3.org/2000/svg"><path d="m77.0625 48.535156-20.53125 19.558594c-29.695312 72.335938-43.972656 185.585938-48.839844 232.167969-1.417968 13.53125 5.804688 26.546875 18.097656 32.371093 4.320313 2.054688 9.316407 4.234376 14.941407 6.394532l50.863281-270.933594zm0 0" fill="#fbd173"/><path d="m504.3125 300.261719c-4.871094-46.585938-19.144531-159.832031-48.839844-232.167969l-18.578125-19.558594-16.488281 19.558594 50.867188 270.9375c5.621093-2.160156 10.617187-4.34375 14.9375-6.394531 12.292968-5.828125 19.519531-18.84375 18.101562-32.375zm0 0" fill="#fbd173"/><path d="m420.40625 68.09375-164.40625-19.558594-164.40625 19.558594c-27.171875 93.386719-43.003906 203.789062-50.863281 270.9375 31.277343 12.015625 82.183593 23.554688 147.324219 10.375 11.722656-2.367188 20.933593-11.441406 23.359374-23.15625l22.28125-107.632812c1.007813-7.824219 7.675782-13.671876 15.558594-13.671876h13.492188c7.882812 0 14.550781 5.847657 15.558594 13.671876l22.28125 107.632812c2.425781 11.714844 11.636718 20.789062 23.359374 23.15625 65.140626 13.179688 116.046876 1.640625 147.324219-10.375-7.859375-67.148438-23.691406-177.550781-50.863281-270.9375zm0 0" fill="#75b8db"/><path d="m429.085938 7.46875h-346.171876c-14.570312 0-26.382812 11.8125-26.382812 26.386719v34.238281h398.9375v-34.238281c.003906-14.574219-11.8125-26.386719-26.382812-26.386719zm0 0" fill="#96ccec"/><path d="m351.839844 188.085938c-6.824219.691406-13.40625-3.496094-15.492188-10.304688-9.011718-29.4375-8.621094-49.539062-8.308594-65.6875.394532-20.480469.613282-31.761719-18.558593-53.6875-5.332031-6.097656-4.714844-15.363281 1.382812-20.695312 6.097657-5.332032 15.367188-4.710938 20.695313 1.386718 26.640625 30.464844 26.234375 51.398438 25.804687 73.5625-.285156 14.796875-.609375 31.570313 7.035157 56.535156 2.644531 8.644532-3.582032 17.980469-12.558594 18.890626zm0 0" fill="#efedee"/><path d="m160.164062 188.085938c6.820313.691406 13.40625-3.496094 15.488282-10.304688 9.011718-29.4375 8.625-49.539062 8.3125-65.6875-.398438-20.480469-.617188-31.761719 18.558594-53.6875 5.328124-6.097656 4.710937-15.363281-1.386719-20.695312-6.097657-5.332032-15.367188-4.710938-20.695313 1.386718-26.636718 30.464844-26.234375 51.398438-25.804687 73.5625.285156 14.796875.609375 31.570313-7.035157 56.535156-2.644531 8.644532 3.585938 17.980469 12.5625 18.890626zm0 0" fill="#efedee"/><path d="m462.984375 66.667969v-32.785157c0-18.683593-15.203125-33.882812-33.886719-33.882812h-274.34375c-4.144531 0-7.5 3.359375-7.5 7.5s3.355469 7.5 7.5 7.5h274.34375c10.414063 0 18.886719 8.472656 18.886719 18.882812v26.742188h-92.453125c-.101562-.210938-.222656-.417969-.328125-.628906-5.316406-10.375-11.410156-20.765625-20.519531-28.265625-8.902344-7.332031-22.382813-6.535157-30.296875 1.871093-6.675781 7.089844-7.875 18.140626-2.886719 26.515626.101562.167968.1875.339843.292969.507812h-91.558594c5.664063-8.953125 3.816406-21.5625-4.148437-28.527344-11.910157-10.417968-26.21875-4.355468-34.929688 6.421875-5.515625 6.828125-10.683594 14.1875-14.664062 22.105469h-92.449219v-26.738281c0-10.414063 8.472656-18.886719 18.886719-18.886719h41.824218c4.140625 0 7.5-3.355469 7.5-7.5 0-4.140625-3.359375-7.5-7.5-7.5h-41.824218c-18.683594 0-33.886719 15.203125-33.886719 33.886719v32.78125c-29.738281 73.429687-44.023438 187.144531-48.800781 232.839843-2.660157 25.472657 16.910156 38.519532 37.816406 46.554688 48.113281 18.488281 101.21875 20.867188 151.492187 10.722656 14.722657-2.972656 26.191407-14.347656 29.21875-28.984375l22.285157-107.636719c.039062-.1875.070312-.375.09375-.5625.523437-4.0625 4.015624-7.128906 8.117187-7.128906h13.496094c4.105469 0 7.59375 3.066406 8.117187 7.128906.023438.1875.054688.375.09375.5625l22.285156 107.636719c3.027344 14.636719 14.5 26.011719 29.214844 28.984375 55.46875 11.222656 115.441406 7.128906 166.964844-17.34375 15.117188-7.167968 24.097656-23.214844 22.347656-39.933594-4.777344-45.691406-19.0625-159.410156-48.800781-232.839843zm-147.167969-23.28125c2.863282-2.507813 7.605469-2.1875 10.109375.675781 7.8125 8.9375 14.878907 18.820312 19.171875 29.960938 5.492188 14.261718 4.855469 29.398437 4.683594 44.390624-.152344 13.976563.464844 30.160157 7.457031 53.003907 2.585938 8.4375-10.496093 13.039062-13.585937 4.53125-4.863282-13.464844-7.113282-28.578125-7.910156-42.8125-.726563-12.96875.78125-26.03125-.511719-38.960938-1.574219-15.746093-9.890625-29.011719-20.09375-40.675781-2.601563-2.976562-2.296875-7.511719.679687-10.113281zm-161.027344 128.03125c6.492188-21.214844 7.488282-36.683594 7.472657-49.976563 0-16.089844-1.261719-32.074218 4.667969-47.417968 4.320312-11.144532 11.347656-21.011719 19.167968-29.960938 2.519532-2.882812 7.238282-3.195312 10.113282-.679688 2.933593 2.566407 3.242187 7.183594.679687 10.117188-.035156.039062-.066406.078125-.101563.117188-10.195312 11.632812-18.460937 24.789062-19.992187 40.550781-.890625 9.085937-.203125 18.222656-.199219 27.328125.007813 13.996094-1.066406 31.132812-8.101562 54.121094-1.21875 3.976562-5.972656 6.242187-9.765625 4.40625-3.078125-1.488282-4.960938-5.28125-3.941407-8.605469zm-120.265624 156.445312c-.019532.167969-.039063.34375-.0625.511719-1.847657-.8125-3.664063-1.640625-5.445313-2.488281-9.375-4.445313-14.945313-14.417969-13.855469-24.816407 4.640625-44.367187 18.335938-153.707031 46.453125-225.449218h20.054688c-11.03125 33.09375-17.277344 68.652344-23.9375 102.835937-9.644531 49.484375-17.097657 99.367188-23.207031 149.40625zm448.484374-1.972656c-1.78125.847656-3.597656 1.675781-5.445312 2.484375-.074219-.609375-.152344-1.222656-.226562-1.832031-1.648438-13.515625-3.941407-27.007813-5.296876-40.554688-.570312-4.101562-4.359374-6.964843-8.460937-6.394531-4.105469.574219-6.964844 4.363281-6.394531 8.464844 1.949218 13.933594 3.757812 27.890625 5.449218 41.855468.167969 1.386719.335938 2.773438.5 4.160157-30.640624 10.851562-77.988281 20.085937-137.691406 8.007812-8.820312-1.78125-15.6875-8.582031-17.496094-17.324219l-22.230468-107.382812c-1.621094-11.367188-11.433594-19.902344-22.953125-19.902344h-13.496094c-11.519531 0-21.332031 8.535156-22.953125 19.902344l-22.230469 107.382812c-1.808593 8.742188-8.679687 15.542969-17.503906 17.324219-59.707031 12.082031-107.054687 2.84375-137.695313-8.011719.007813-.066406.015626-.136718.027344-.203124.058594-.515626.121094-1.027344.183594-1.539063 1.878906-15.660156 3.90625-31.304687 6.09375-46.925781 6.675781-47.472656 14.71875-94.777344 25.039062-141.601563 5.050782-22.878906 10.605469-45.648437 17.027344-68.179687h53.316406c-.058593.203125-.109374.40625-.164062.609375-4.109375 14.65625-3.164062 29.820312-3.144531 44.851562.015625 12.308594-.890625 26.585938-6.816407 45.945313-3.570312 11.660156 3.683594 24.628906 15.390626 27.875 19.378906 5.371094 27.113281-13.339844 30.710937-28.53125 5.527344-23.328125 5.203125-40.308594 4.929687-54.414063-.25-12.824219.242188-25.214843 7.328126-36.335937h114.417968c5.628906 8.835937 7.460938 18.71875 7.429688 29.082031-.078125 25.824219.910156 50.386719 8.539062 75.304687 3.03125 9.902344 13.089844 16.617188 23.414063 15.566407 13.527343-1.375 22.957031-15.539063 18.976562-28.546875-7.292969-23.820313-6.980469-39.957032-6.707031-54.191406.242188-12.464844.0625-25.148438-3.417969-37.214844h53.316407c11.925781 41.949218 21.125 84.617187 28.875 127.519531 3.386718 18.730469 6.585937 38.03125 9.476562 57.054687 1.195312 7.851563 12.722656 8.425782 14.6875.722657 1.257812-4.949219-1.316406-11.722657-2.117188-16.625-2.492187-15.230469-4.945312-30.988281-7.75-46.371094-7.511718-41.179687-16.832031-81.875-27.582031-122.324219 6.664063.179688 13.371094.023438 20.046875.023438 28.121094 71.738281 41.816406 181.078125 46.453125 225.449218 1.089844 10.398438-4.476562 20.371094-13.855469 24.820313zm0 0"/></svg>