<?xml version="1.0" encoding="iso-8859-1"?>
<!-- Generator: Adobe Illustrator 16.0.0, SVG Export Plug-In . SVG Version: 6.00 Build 0)  -->
<!DOCTYPE svg PUBLIC "-//W3C//DTD SVG 1.1//EN" "http://www.w3.org/Graphics/SVG/1.1/DTD/svg11.dtd">
<svg version="1.1" id="Capa_1" xmlns="http://www.w3.org/2000/svg" xmlns:xlink="http://www.w3.org/1999/xlink" x="0px" y="0px"
	 width="53.848px" height="53.848px" viewBox="0 0 53.848 53.848" style="enable-background:new 0 0 53.848 53.848;"
	 xml:space="preserve">
<g>
	<g>
		<path d="M29.025,8.546c0-2.932-1.295-2.932-1.848-2.932s-1.848,0-1.848,2.932v13.005h3.696V8.546z"/>
		<path d="M30.906,46.122c1.541-1.673,2.262-3.74,2.061-5.785c-0.137-1.386-2.941-1.396-2.805,0c0.17,1.711-0.389,3.293-1.678,4.69
			C27.434,46.169,29.867,47.25,30.906,46.122z"/>
		<path d="M16.51,25.238c-1.104,0-2,0.896-2,2c0,1.104,0.896,2,2,2h4.341v2.365c-3.378,2.137-5.627,5.896-5.627,10.188
			c0,6.658,5.398,12.057,12.057,12.057c6.659,0,12.057-5.398,12.057-12.057c0-4.43-2.395-8.29-5.954-10.387V6.267
			C33.384,2.806,30.578,0,27.117,0c-3.461,0-6.267,2.806-6.267,6.267v0.971h-4.34c-1.104,0-2,0.896-2,2s0.896,2,2,2h4.341v2H16.51
			c-1.104,0-2,0.896-2,2s0.896,2,2,2h4.341v2H16.51c-1.104,0-2,0.896-2,2s0.896,2,2,2h4.341v2H16.51z M24.331,21.551V8.546
			c0-2.171,0.676-3.932,2.848-3.932s2.849,1.76,2.849,3.932v13.005v13.604c2.983,0.765,4.562,3.348,4.775,5.918
			c0.025,0.197,0.043,0.396,0.043,0.599c0,4.178-3.387,7.565-7.565,7.565s-7.564-3.388-7.564-7.565c0-0.203,0.018-0.403,0.045-0.601
			c0.228-2.824,2.01-5.012,4.569-5.791V21.551z"/>
	</g>
</g>
<g>
</g>
<g>
</g>
<g>
</g>
<g>
</g>
<g>
</g>
<g>
</g>
<g>
</g>
<g>
</g>
<g>
</g>
<g>
</g>
<g>
</g>
<g>
</g>
<g>
</g>
<g>
</g>
<g>
</g>
</svg>
