<?xml version="1.0" encoding="utf-8"?>
<!-- Generator: Adobe Illustrator 24.0.1, SVG Export Plug-In . SVG Version: 6.00 Build 0)  -->
<svg version="1.1" id="Capa_1" xmlns="http://www.w3.org/2000/svg" xmlns:xlink="http://www.w3.org/1999/xlink" x="0px" y="0px"
	 viewBox="0 0 53.8 53.8" style="enable-background:new 0 0 53.8 53.8;" xml:space="preserve">
<style type="text/css">
	.st0{fill:#FF0000;}
	.st1{fill:#87969D;}
</style>
<g>
	<g>
		<path class="st0" d="M29,8.5c0-2.9-1.3-2.9-1.8-2.9s-1.8,0-1.8,2.9v13H29C29,21.6,29,8.5,29,8.5z"/>
		<path class="st1" d="M30.9,46.1c1.5-1.7,2.3-3.7,2.1-5.8c-0.1-1.4-2.9-1.4-2.8,0c0.2,1.7-0.4,3.3-1.7,4.7
			C27.4,46.2,29.9,47.3,30.9,46.1z"/>
		<path class="st1" d="M16.5,25.2c-1.1,0-2,0.9-2,2s0.9,2,2,2h4.3v2.4c-3.4,2.1-5.6,5.9-5.6,10.2c0,6.7,5.4,12.1,12.1,12.1
			s12.1-5.4,12.1-12.1c0-4.4-2.4-8.3-6-10.4V6.3c0-3.5-2.8-6.3-6.3-6.3s-6.3,2.8-6.3,6.3v1h-4.3c-1.1,0-2,0.9-2,2s0.9,2,2,2h4.3v2
			h-4.3c-1.1,0-2,0.9-2,2s0.9,2,2,2h4.3v2h-4.3c-1.1,0-2,0.9-2,2s0.9,2,2,2h4.3v2H16.5z M24.3,21.6v-13c0-2.2,0.7-3.9,2.8-3.9
			S30,6.4,30,8.5v13v13.6c3,0.8,4.6,3.3,4.8,5.9c0,0.2,0,0.4,0,0.6c0,4.2-3.4,7.6-7.6,7.6s-7.6-3.4-7.6-7.6c0-0.2,0-0.4,0-0.6
			c0.2-2.8,2-5,4.6-5.8V21.6z"/>
	</g>
</g>
</svg>
