<?xml version="1.0" encoding="utf-8"?>
<!-- Generator: Adobe Illustrator 24.0.1, SVG Export Plug-In . SVG Version: 6.00 Build 0)  -->
<svg version="1.1" id="Calque_1" xmlns="http://www.w3.org/2000/svg" xmlns:xlink="http://www.w3.org/1999/xlink" x="0px" y="0px"
	 viewBox="0 0 410.8 371" style="enable-background:new 0 0 410.8 371;" xml:space="preserve">
<style type="text/css">
	.st0{fill:#FFFFFF;}
	.st1{fill:none;stroke:#000000;stroke-miterlimit:10;}
</style>
<title>LOGO CONTOURS</title>
<path class="st0" d="M206.5,274c-39.3,0-71.9-11.9-89.4-32.6c-13.5-16-18.3-36.9-14-62.1c6.5-38.9,29.5-66.4,47.6-82.6
	C172.5,77.2,195.3,67,206.5,67c19.2,0,42.8,10.9,61.6,28.6c16,15,36.3,41.7,42,83.8c3.5,25.8-1.8,47-15.8,63.1
	C276.6,262.8,245.4,274,206.5,274z"/>
<path d="M206.5,67.5c19.1,0,42.5,10.9,61.2,28.4c15.9,15,36.1,41.6,41.9,83.5c3.5,25.7-1.7,46.8-15.6,62.7
	c-9.2,10.5-22,18.6-38.1,24c-14.4,4.8-31.5,7.4-49.4,7.4c-39.2,0-71.6-11.8-89-32.4c-13.5-15.9-18.1-36.6-13.9-61.6
	c2.9-16.7,9-32.8,17.9-47.2c8.1-13.1,18.1-25,29.6-35.2C172.8,77.7,195.4,67.5,206.5,67.5 M206.5,66.5c-23,0-92,42-103.9,112.8
	c-11.7,69.3,46.5,95.2,103.9,95.2s113.7-25.5,104.1-95.2C300.5,105.5,242.9,66.5,206.5,66.5z"/>
<path class="st1" d="M205.3,163h16c5.5,0,8.9,5.6,6.2,10.1l-8,13l-8.4,12.9c-2,3.3-6.2,4.5-9.6,2.5c-1-0.6-1.8-1.4-2.4-2.4l-8-13
	l-8-13c-2.8-4.5,0.7-10.1,6.2-10.1L205.3,163z"/>
<path class="st1" d="M201.1,343.4c-3.4,12.3-21.2,23.4-43.7,26.3c-26.3,3.5-49.1-5.5-51-20c-1.3-9.5,6.8-19,19.8-25.4
	C148.7,336.3,174.5,342.8,201.1,343.4z"/>
<path class="st1" d="M310.4,349.3c-1.9,14.5-24.8,23.5-51,20c-22.4-2.9-40.1-14-43.6-26.1c25.9-1.5,50.5-8.5,71.8-20.7
	C302.4,328.9,311.8,339.1,310.4,349.3z"/>
<ellipse class="st1" cx="172" cy="128.5" rx="11" ry="20.5"/>
<ellipse class="st1" cx="243" cy="128.5" rx="11" ry="20.5"/>
<path class="st1" d="M410.2,145.4c0,0.3-0.1,0.7-0.2,1c-2,10.8-7.8,21.8-13.8,30.9c-6,9-13.4,16.9-22,23.4c-2.8,2.1-5.8,4.1-8.7,6.3
	l-4.3,3.1c-0.4,0.3-1.5,0.9-2.6,1.6c-0.1,0.6-0.1,1.2-0.2,1.9c-6.3,50.5-33.5,87.7-70.9,109c-21.3,12.2-45.9,19.2-71.8,20.7
	c-3.4,0.2-6.8,0.3-10.2,0.3c-1.5,0-2.9,0-4.4-0.1c-26.7-0.6-52.5-7.2-74.9-19.1C87.4,303.8,58.4,267.2,52.1,217
	c-1.1-0.7-2.1-1.3-2.5-1.6l-4.3-3.1c-2.9-2.1-5.8-4.1-8.6-6.3c-8.6-6.5-16-14.4-22-23.4c-6.1-9.1-11.9-20.1-13.9-30.9
	c-0.1-0.3-0.1-0.7-0.1-1c-0.3-2.3-0.3-5.9,2.1-7.3c3.6-2.4,7.4-0.8,10.9,0.9c6.9,3.2,14.2,5.5,21.7,7c1.5,0.3,14.8,3,20,3.5
	c-0.4,1.9-0.8,3.9-1.1,5.9C72,66.4,156.8,0.5,205.5,0.5c48,0,130.6,54.2,150.1,148.9c0,0,0,0,0,0.1c5.2-0.5,18.5-3.1,20-3.5
	c7.5-1.5,14.8-3.8,21.7-7c3.5-1.7,7.3-3.3,10.9-0.9C410.5,139.4,410.5,143.1,410.2,145.4z"/>
<line class="st1" x1="355.6" y1="149.1" x2="356.6" y2="155.1"/>
</svg>
