<svg id="Calque_1" data-name="Calque 1" xmlns="http://www.w3.org/2000/svg" viewBox="0 0 282.67 304.37">
  <defs>
    <style>
      .cls-1, .cls-2, .cls-3, .cls-4 {
        isolation: isolate;
      }

      .cls-2, .cls-3, .cls-4 {
        font-size: 39.1px;
        font-family: BROTHER-Bold, BROTHER;
        font-weight: 700;
      }

      .cls-2, .cls-3, .cls-4, .cls-5 {
        fill: #eb8519;
      }

      .cls-2 {
        letter-spacing: -0.02em;
      }

      .cls-4 {
        letter-spacing: -0.02em;
      }

      .cls-6 {
        fill: #1a0c1c;
      }

      .cls-7 {
        fill: #fff;
      }
    </style>
  </defs>
  <title>winter pinguin fini</title>
  <g class="cls-1">
    <text class="cls-2" transform="translate(37.04 297.29) scale(1.02 1)">W</text>
    <text class="cls-3" transform="translate(65.87 297.29) scale(1.02 1)">in</text>
    <text class="cls-4" transform="translate(91.71 297.29) scale(1.02 1)">t</text>
    <text class="cls-3" transform="translate(107.34 297.29) scale(1.02 1)">er Penguin</text>
  </g>
  <path class="cls-5" d="M235.28,252.78c-1.3,10-17,16.17-35.1,13.77-15.43-2-27.6-9.64-30-18a112.15,112.15,0,0,0,49.4-14.25C229.74,238.71,236.21,245.76,235.28,252.78Z" transform="translate(-21.4 -12.69)"/>
  <path class="cls-5" d="M105.92,234.3a112.15,112.15,0,0,0,49.4,14.25c-2.43,8.36-14.6,16-30,18-18.07,2.4-33.8-3.78-35.1-13.77C89.26,245.76,95.73,238.71,105.92,234.3Z" transform="translate(-21.4 -12.69)"/>
  <path class="cls-6" d="M162.74,12.69c-33,0-90.22,37.31-103.64,102.46v0c-3.55-.34-12.71-2.16-13.77-2.38A66.74,66.74,0,0,1,30.38,108c-2.42-1.16-5-2.27-7.48-.62-1.61.92-1.61,3.44-1.41,5,0,.24.06.46.1.69,1.38,7.45,5.35,15,9.54,21.27a66.51,66.51,0,0,0,15.14,16.08c1.95,1.48,4,2.86,5.95,4.31l3,2.16c.24.18,1,.63,1.79,1.11,0,.43.09.86.15,1.28,4.33,34.78,23.09,60.34,48.8,75a112.38,112.38,0,0,0,49.4,14.25c2.33.13,5,.2,7.4.2h0c2.36,0,5.06-.07,7.39-.2a112.38,112.38,0,0,0,49.4-14.25c25.71-14.68,44.47-40.24,48.8-75,.06-.42.11-.85.15-1.28.75-.48,1.55-.93,1.79-1.11l3-2.16c2-1.45,4-2.83,5.95-4.31a66.51,66.51,0,0,0,15.14-16.08c4.19-6.26,8.16-13.82,9.54-21.27,0-.23.07-.45.1-.69.2-1.57.2-4.09-1.41-5-2.47-1.65-5.06-.54-7.48.62a66.74,66.74,0,0,1-14.95,4.82c-1.06.22-10.22,2-13.77,2.38v0C253,50,195.77,12.69,162.74,12.69Z" transform="translate(-21.4 -12.69)"/>
  <path class="cls-7" d="M166.28,204.1c-2.36,0-4.73,0-7.09,0-7.26.1-19-2.83-30.87-7.49-4.25-1.67-26.1-10.77-35.79-33-15.08-34.65,12.9-69.92,16.52-74.33a88,88,0,0,1,37.56-26.46,45.91,45.91,0,0,1,32.25,0,88,88,0,0,1,37.56,26.46c3.62,4.41,31.6,39.68,16.52,74.33-9.69,22.27-31.54,31.37-35.79,33C185.31,201.27,173.54,204.2,166.28,204.1Z" transform="translate(-21.4 -12.69)"/>
  <ellipse cx="167.49" cy="88.1" rx="7.57" ry="14.11"/>
  <ellipse cx="115.18" cy="88.1" rx="7.57" ry="14.11"/>
  <path class="cls-5" d="M178.19,132.57c-5.28-4-15.45-3.87-15.45-3.87s-10.18-.15-15.46,3.87,7.92,15.08,15.45,15.08S183.46,136.59,178.19,132.57Z" transform="translate(-21.4 -12.69)"/>
</svg>
