<?xml version="1.0" encoding="utf-8"?>
<!-- Generator: Adobe Illustrator 24.0.1, SVG Export Plug-In . SVG Version: 6.00 Build 0)  -->
<svg version="1.1" id="Calque_1" xmlns="http://www.w3.org/2000/svg" xmlns:xlink="http://www.w3.org/1999/xlink" x="0px" y="0px"
	 viewBox="0 0 410.8 371" style="enable-background:new 0 0 410.8 371;" xml:space="preserve">
<style type="text/css">
	.st0{fill-rule:evenodd;clip-rule:evenodd;fill:#1A0C1C;}
	.st1{fill:#FFFFFF;}
	.st2{fill-rule:evenodd;clip-rule:evenodd;fill:#EB8519;}
	.st3{stroke:#000000;stroke-miterlimit:10;}
	.st4{fill:none;stroke:#000000;stroke-miterlimit:10;}
	.st5{fill:#EB8519;}
	.st6{font-family:'BROTHER-Bold';}
	.st7{font-size:39.0951px;}
</style>
<title>LOGO CONTOURS</title>
<path class="st0" d="M366,125.6c0,0.2-0.1,0.5-0.1,0.7c-1.6,7.5-6.2,15.1-11,21.5c-4.7,6.2-10.7,11.7-17.5,16.2
	c-2.3,1.5-4.6,2.9-6.9,4.3c-1.1,0.7-2.3,1.5-3.4,2.2c-0.3,0.2-1.2,0.6-2.1,1.1c-0.1,0.4-0.1,0.9-0.2,1.3
	c-5,35.1-26.6,60.9-56.3,75.8c-16.9,8.5-36.4,13.4-57,14.4c-2.7,0.1-5.4,0.2-8.1,0.2c-1.2,0-2.3,0-3.5,0c-21.2-0.4-41.6-5-59.5-13.3
	c-30.8-14.3-53.8-39.7-58.8-74.6c-0.8-0.5-1.7-0.9-2-1.1c-1.1-0.7-2.3-1.5-3.4-2.2c-2.3-1.5-4.6-2.8-6.9-4.3
	c-6.8-4.5-12.7-10-17.5-16.2c-4.8-6.3-9.4-13.9-11-21.5c0-0.2-0.1-0.5-0.1-0.7c-0.2-1.6-0.2-4.1,1.6-5.1c2.9-1.7,5.8-0.5,8.6,0.6
	c5.5,2.3,11.3,3.8,17.2,4.9c1.2,0.2,11.8,2.1,15.8,2.4c-0.3,1.3-0.6,2.7-0.9,4.1C97.6,70.7,164.9,24.9,203.6,24.9
	c38.1,0,103.6,37.7,119.1,103.5l0,0c4.1-0.3,14.7-2.2,15.8-2.4c5.9-1.1,11.8-2.6,17.2-4.9c2.8-1.2,5.8-2.3,8.6-0.6
	C366.2,121.4,366.2,124,366,125.6z"/>
<g>
	<path class="st1" d="M204.4,214.8c-33.3,0-60-9.2-73.3-25.3c-8.8-10.7-11.8-24.3-8.7-40.3c9.7-50.3,65.3-78,82-78
		c15.2,0,33.9,7.6,48.8,19.8c12.7,10.4,28.7,29,33.3,58.1c2.6,16.5-0.8,30.3-10,41C263.1,205.8,236.8,214.8,204.4,214.8z"/>
	<path d="M204.4,71.8c15.1,0,33.7,7.6,48.5,19.7c12.6,10.4,28.6,28.8,33.1,57.8c2.6,16.3-0.8,30-9.9,40.6
		c-7,8.2-17.3,14.5-30.6,18.7c-11.9,3.7-26.1,5.7-41.2,5.7c-33.2,0-59.7-9.2-72.9-25.1c-8.7-10.6-11.6-24-8.6-39.9
		c5.2-26.8,23.3-45.8,37.6-57C177.6,78.8,195.5,71.8,204.4,71.8 M204.4,70.8c-18.3,0-73,29.2-82.5,78.4
		c-9.3,48.2,36.9,66.2,82.5,66.2s90.2-17.8,82.6-66.2C279,97.9,233.3,70.8,204.4,70.8L204.4,70.8z"/>
</g>
<path class="st2" d="M200.1,263.2c-2.7,8.5-16.8,16.2-34.7,18.3c-20.9,2.4-39-3.8-40.5-13.9c-1-6.6,5.4-13.2,15.7-17.6
	C158.5,258.2,178.9,262.8,200.1,263.2z"/>
<path class="st2" d="M286.8,267.3c-1.5,10.1-19.6,16.3-40.5,13.9c-17.8-2-31.8-9.7-34.6-18.2c20.5-1,40-5.9,57-14.4
	C280.4,253.1,287.9,260.2,286.8,267.3z"/>
<ellipse class="st3" cx="177" cy="113.8" rx="8.7" ry="14.2"/>
<ellipse class="st3" cx="233.3" cy="113.8" rx="8.7" ry="14.2"/>
<line class="st4" x1="322.7" y1="128.2" x2="323.4" y2="132.3"/>
<text transform="matrix(1.0165 0 0 1 99.0547 337.8807)" class="st5 st6 st7">Winter Penguin</text>
<g>
	<path class="st2" d="M203.3,166.3c-8.8-0.3-17-12.9-14.9-18.5c1.4-3.9,8.4-6.1,14.9-5.8c6.5-0.3,13.5,1.9,14.9,5.8
		C220.3,153.4,212.2,166,203.3,166.3z"/>
</g>
</svg>
